<?xml version="1.0" encoding="UTF-8" standalone="no"?>
<!-- Created with Inkscape (http://www.inkscape.org/) -->

<svg
   width="1000"
   height="2000"
   viewBox="0 0 1000 2000"
   version="1.1"
   id="svg1"
   inkscape:version="1.4.2 (f4327f4, 2025-05-13)"
   sodipodi:docname="GameHudBackground.svg"
   xml:space="preserve"
   inkscape:export-filename="GameHudBackground.png"
   inkscape:export-xdpi="96"
   inkscape:export-ydpi="96"
   xmlns:inkscape="http://www.inkscape.org/namespaces/inkscape"
   xmlns:sodipodi="http://sodipodi.sourceforge.net/DTD/sodipodi-0.dtd"
   xmlns="http://www.w3.org/2000/svg"
   xmlns:svg="http://www.w3.org/2000/svg"><sodipodi:namedview
     id="namedview1"
     pagecolor="#505050"
     bordercolor="#ffffff"
     borderopacity="1"
     inkscape:showpageshadow="0"
     inkscape:pageopacity="0"
     inkscape:pagecheckerboard="1"
     inkscape:deskcolor="#505050"
     inkscape:document-units="px"
     inkscape:zoom="0.36302259"
     inkscape:cx="864.95995"
     inkscape:cy="703.81296"
     inkscape:window-width="1920"
     inkscape:window-height="1017"
     inkscape:window-x="1912"
     inkscape:window-y="-8"
     inkscape:window-maximized="1"
     inkscape:current-layer="layer3" /><defs
     id="defs1"><filter
       style="color-interpolation-filters:sRGB;"
       inkscape:label="Drop Shadow"
       id="filter2"
       x="0"
       y="0"
       width="1.01"
       height="1.01"
       inkscape:auto-region="false"><feFlood
         result="flood"
         in="SourceGraphic"
         flood-opacity="0.600000"
         flood-color="rgb(0,0,0)"
         id="feFlood1" /><feGaussianBlur
         result="blur"
         in="SourceGraphic"
         stdDeviation="0.000000"
         id="feGaussianBlur1" /><feOffset
         result="offset"
         in="blur"
         dx="11.000000"
         dy="11.000000"
         id="feOffset1" /><feComposite
         result="comp1"
         operator="in"
         in="flood"
         in2="offset"
         id="feComposite1" /><feComposite
         result="comp2"
         operator="over"
         in="SourceGraphic"
         in2="comp1"
         id="feComposite2" /></filter></defs><g
     inkscape:groupmode="layer"
     id="layer3"
     inkscape:label="Drop Shadow"
     style="filter:url(#filter2)"><rect
       style="fill:#252525;stroke-width:5.34846;-inkscape-stroke:none;fill-opacity:1"
       id="rect1"
       width="983.40991"
       height="906.27972"
       x="0"
       y="0" /><path
       style="fill:#252525;fill-opacity:1;stroke-width:5.34846;-inkscape-stroke:none"
       d="m 0,881.39369 v 149.00911 l 147.06127,19.4783 14.60873,-114.92204 25.32181,85.70454 -44.80012,21.4262 47.72187,82.7828 82.78283,-48.6958 -23.37398,-31.1653 56.48711,-17.5305 -6.81741,34.0871 124.66121,26.2957 31.1653,-118.8177 -90.57415,-21.42614 49.6697,-24.34789 61.35668,128.55683 91.54808,-41.8783 -7.79133,16.5565 116.86988,69.148 51.61754,-88.6263 7.79132,16.5566 67.20018,-30.1914 -14.60873,86.6785 -38.95663,-41.8784 -57.46103,50.6436 53.56537,58.435 51.61753,-50.6436 153.87868,26.2957 27.26964,-168.48743 -64.27844,-8.76524 73.04368,-42.85229 -52.59145,-25.32181 -260.03549,25.32181 24.34789,45.77404 -72.06976,-42.85229 -19.47831,32.13921 -15.58265,-49.6697 z"
       id="path2"
       sodipodi:nodetypes="cccccccccccccccccccccccccccccccccccccc" /><path
       style="opacity:1;fill:#252525;fill-opacity:1;stroke-width:5.34846;-inkscape-stroke:none"
       d="m 67.200182,1094.6812 c 0,0 -20.452229,32.1392 -20.452229,36.0349 0,3.8957 12.660904,70.1219 12.660904,70.1219 l 78.887173,-62.3306 z"
       id="path4" /><path
       style="opacity:1;fill:#252525;fill-opacity:1;stroke-width:5.34846;-inkscape-stroke:none"
       d="m 75.965423,1249.5338 34.087047,64.2785 68.1741,-20.4523 0.97392,-55.5132 -58.43495,0.9739 z"
       id="path5" /><path
       style="opacity:1;fill:#252525;fill-opacity:1;stroke-width:5.34846;-inkscape-stroke:none"
       d="m 220.10494,1229.0816 -3.89566,28.2435 h 36.03488 l 2.92175,-39.9305 z"
       id="path6" /><path
       style="opacity:1;fill:#252525;fill-opacity:1;stroke-width:5.34846;-inkscape-stroke:none"
       d="m 268.80073,1352.7689 36.03488,40.9044 49.6697,-40.9044 -49.6697,-26.2957 z"
       id="path7" /><path
       style="opacity:1;fill:#252525;fill-opacity:1;stroke-width:5.34846;-inkscape-stroke:none"
       d="m 350.60965,1144.3509 c 6.81741,19.4783 28.24355,70.122 28.24355,70.122 l 108.10464,-61.3567 -68.1741,-54.5393 z"
       id="path8" /><path
       style="opacity:1;fill:#252525;fill-opacity:1;stroke-width:5.34846;-inkscape-stroke:none"
       d="m 495.72308,1084.9421 10.71308,34.087 51.61753,-22.4 -17.53049,-30.1914 z"
       id="path9" /><path
       style="opacity:1;fill:#252525;fill-opacity:1;stroke-width:5.34846;-inkscape-stroke:none"
       d="m 488.90567,1192.0728 -14.60873,102.2611 101.28723,6.8175 43.8262,-150.957 z"
       id="path10" /><path
       style="opacity:1;fill:#252525;fill-opacity:1;stroke-width:5.34846;-inkscape-stroke:none"
       d="m 658.367,1233.9512 46.74795,85.7046 78.88717,-44.8002 -43.8262,-72.0697 z"
       id="path11" /><path
       style="opacity:1;fill:#252525;fill-opacity:1;stroke-width:5.34846;-inkscape-stroke:none"
       d="m 867.75887,1180.3858 -27.26964,24.3479 18.5044,19.4783 37.0088,-18.5044 z"
       id="path12" /><path
       style="opacity:1;fill:#252525;fill-opacity:1;stroke-width:5.34846;-inkscape-stroke:none"
       d="m 603.26825,1475.1148 -55.09299,38.5651 13.77324,55.093 89.52611,-33.0558 z"
       id="path13" /><path
       style="opacity:1;fill:#252525;fill-opacity:1;stroke-width:5.34846;-inkscape-stroke:none"
       d="m 837.41346,1426.9085 -11.0186,35.8104 48.20637,8.264 5.5093,-45.4518 z"
       id="path14" /><path
       style="opacity:1;fill:#252525;fill-opacity:1;stroke-width:5.34846;-inkscape-stroke:none"
       d="m 241.03183,1685.8455 -30.30114,41.3198 41.31974,24.7918 24.79185,-56.4703 z"
       id="path15" /></g></svg>
