<?xml version="1.0" encoding="UTF-8" standalone="no"?>
<!-- Created with Inkscape (http://www.inkscape.org/) -->

<svg
   width="256"
   height="256"
   viewBox="0 0 512 512"
   version="1.1"
   id="svg1"
   inkscape:version="1.3.2 (091e20e, 2023-11-25, custom)"
   sodipodi:docname="StepToken.svg"
   xml:space="preserve"
   inkscape:export-filename="StepToken.png"
   inkscape:export-xdpi="48"
   inkscape:export-ydpi="48"
   xmlns:inkscape="http://www.inkscape.org/namespaces/inkscape"
   xmlns:sodipodi="http://sodipodi.sourceforge.net/DTD/sodipodi-0.dtd"
   xmlns:xlink="http://www.w3.org/1999/xlink"
   xmlns="http://www.w3.org/2000/svg"
   xmlns:svg="http://www.w3.org/2000/svg"><sodipodi:namedview
     id="namedview1"
     pagecolor="#505050"
     bordercolor="#ffffff"
     borderopacity="1"
     inkscape:showpageshadow="0"
     inkscape:pageopacity="0"
     inkscape:pagecheckerboard="1"
     inkscape:deskcolor="#505050"
     inkscape:document-units="px"
     inkscape:zoom="1.4627806"
     inkscape:cx="63.577546"
     inkscape:cy="169.88194"
     inkscape:window-width="1920"
     inkscape:window-height="1017"
     inkscape:window-x="1912"
     inkscape:window-y="-8"
     inkscape:window-maximized="1"
     inkscape:current-layer="svg1" /><defs
     id="defs1"><linearGradient
       id="linearGradient5"
       inkscape:collect="always"><stop
         style="stop-color:#b977b2;stop-opacity:1;"
         offset="0"
         id="stop6" /><stop
         style="stop-color:#f16888;stop-opacity:1;"
         offset="1"
         id="stop7" /></linearGradient><linearGradient
       id="linearGradient4"
       inkscape:collect="always"><stop
         style="stop-color:#1d1d1d;stop-opacity:1;"
         offset="0"
         id="stop3" /><stop
         style="stop-color:#252525;stop-opacity:1;"
         offset="0.33820841"
         id="stop5" /><stop
         style="stop-color:#4a4a4a;stop-opacity:1;"
         offset="1"
         id="stop4" /></linearGradient><linearGradient
       id="linearGradient1"
       inkscape:collect="always"><stop
         style="stop-color:#b977b2;stop-opacity:1;"
         offset="0"
         id="stop1" /><stop
         style="stop-color:#f16888;stop-opacity:1;"
         offset="1"
         id="stop2" /></linearGradient><linearGradient
       inkscape:collect="always"
       xlink:href="#linearGradient1"
       id="linearGradient2"
       x1="-68.65567"
       y1="180.79126"
       x2="98.626419"
       y2="412.82281"
       gradientUnits="userSpaceOnUse"
       gradientTransform="matrix(1.6343801,0,0,1.63438,240.19885,-200.65338)" /><radialGradient
       inkscape:collect="always"
       xlink:href="#linearGradient4"
       id="radialGradient3"
       cx="256"
       cy="256"
       fx="256"
       fy="256"
       r="189.99155"
       gradientUnits="userSpaceOnUse" /><linearGradient
       inkscape:collect="always"
       xlink:href="#linearGradient5"
       id="linearGradient7"
       x1="99.221626"
       y1="-977.95685"
       x2="913.1684"
       y2="147.10101"
       gradientUnits="userSpaceOnUse"
       gradientTransform="matrix(0.33661386,0,0,0.33661386,93.067281,422.89204)" /><filter
       style="color-interpolation-filters:sRGB"
       inkscape:label="Drop Shadow"
       id="filter8"
       x="-0.01596644"
       y="-0.01596644"
       width="1.0722428"
       height="1.0722428"><feFlood
         result="flood"
         in="SourceGraphic"
         flood-opacity="0.600000"
         flood-color="rgb(0,0,0)"
         id="feFlood7" /><feGaussianBlur
         result="blur"
         in="SourceGraphic"
         stdDeviation="0.000000"
         id="feGaussianBlur7" /><feOffset
         result="offset"
         in="blur"
         dx="20"
         dy="20"
         id="feOffset7" /><feComposite
         result="comp1"
         operator="in"
         in="flood"
         in2="offset"
         id="feComposite7" /><feComposite
         result="comp2"
         operator="over"
         in="SourceGraphic"
         in2="comp1"
         id="feComposite8" /></filter></defs><g
     id="g7"
     inkscape:label="Main"
     transform="matrix(0.91691579,0,0,0.91691579,21.269559,21.269559)"
     style="filter:url(#filter8)"><circle
       style="display:inline;opacity:1;fill:url(#linearGradient2);stroke:#ffffff;stroke-width:15.8437;stroke-opacity:1"
       id="path1"
       cy="256"
       cx="256"
       r="248.07816"
       inkscape:label="Outline and Gradient" /><circle
       style="display:inline;opacity:1;fill:url(#radialGradient3);stroke:none;stroke-width:12.134;stroke-opacity:1"
       id="circle2"
       cy="256"
       cx="256"
       inkscape:label="Black Fill"
       r="189.99155" /><path
       d="m 180.58688,140.1364 q -15.14762,0 -24.4045,16.8307 -9.25688,16.83069 -9.25688,37.02752 0,21.20667 5.89074,37.53245 5.89074,16.32577 10.93995,24.4045 l 37.02753,-7.4055 q 4.37598,-10.77165 8.92026,-24.57282 4.54429,-13.80116 4.54429,-29.95863 0,-20.19683 -9.25688,-37.02752 -9.25688,-16.8307 -24.40451,-16.8307 z m 18.51377,175.03921 q 6.39566,0 10.77164,-4.7126 4.37598,-4.71259 4.37598,-13.12794 0,-5.72243 -2.69291,-11.78148 -2.69291,-6.05905 -5.38582,-10.77164 l -32.31493,6.73227 q 0,13.46456 5.89074,23.56297 5.89074,10.09842 19.3553,10.09842 z M 328.69698,207.45917 q -15.14762,0 -24.4045,16.8307 -9.25688,16.83069 -9.25688,37.02752 0,16.15747 4.54428,29.79033 4.54429,13.63286 8.92027,24.74112 l 37.02752,7.4055 q 5.04921,-8.07873 10.93995,-24.2362 5.89075,-16.15746 5.89075,-37.70075 0,-20.19683 -9.25688,-37.02752 -9.25689,-16.8307 -24.40451,-16.8307 z m -18.51376,175.03921 q 13.46455,0 19.3553,-10.09842 5.89074,-10.09841 5.89074,-23.56297 l -32.31493,-6.73227 q -2.69291,4.71259 -5.38582,10.77164 -2.69291,6.05905 -2.69291,11.78149 0,6.73227 4.20767,12.2864 4.20767,5.55413 10.93995,5.55413 z M 199.10065,342.10472 q -25.91927,0 -39.38383,-19.18699 -13.46455,-19.18699 -12.79132,-43.08658 l -6.05905,-9.08857 q -3.70275,-5.72244 -12.28641,-25.91927 -8.58365,-20.19683 -8.58365,-50.82869 0,-34.67123 17.16731,-57.72928 17.1673,-23.05805 43.42318,-23.05805 28.61218,0 44.60134,25.41435 15.98916,25.41435 15.98916,55.37298 0,19.5236 -5.38582,36.01768 -5.38583,16.49408 -9.42519,26.5925 l 2.69291,4.37598 q 2.69291,4.71259 7.4055,14.97931 4.7126,10.26673 4.7126,21.37498 0,19.18699 -11.94979,31.97832 -11.9498,12.79133 -30.12694,12.79133 z m 111.08257,67.32277 q -18.17715,0 -30.12694,-12.79133 -11.94979,-12.79132 -11.94979,-31.97831 0,-11.10826 4.71259,-21.37498 4.71259,-10.26673 7.40551,-14.97932 l 2.69291,-4.37598 q -4.03937,-10.09842 -9.42519,-26.5925 -5.38582,-16.49407 -5.38582,-36.01768 0,-29.95863 15.98915,-55.37298 15.98916,-25.41434 44.60134,-25.41434 26.25588,0 43.42319,23.05805 17.16731,23.05804 17.16731,57.72927 0,30.63186 -8.58366,50.66039 -8.58365,20.02852 -12.2864,25.75096 l -6.05905,9.42519 q 0.33661,23.89958 -12.95964,43.08657 -13.29624,19.18699 -39.21551,19.18699 z"
       id="path1-5"
       style="display:inline;opacity:1;fill:url(#linearGradient7);fill-rule:nonzero;stroke-width:0.336478;stroke-dasharray:none"
       inkscape:label="Footprint Icon from fonts.google.com" /></g></svg>
