<?xml version="1.0" encoding="UTF-8" standalone="no"?>
<!-- Created with Inkscape (http://www.inkscape.org/) -->

<svg
   width="1000"
   height="280"
   viewBox="0 0 1000 280"
   version="1.1"
   id="svg1"
   inkscape:version="1.4.2 (f4327f4, 2025-05-13)"
   sodipodi:docname="Logo.svg"
   xml:space="preserve"
   inkscape:export-filename="GameHudBackground.png"
   inkscape:export-xdpi="96"
   inkscape:export-ydpi="96"
   xmlns:inkscape="http://www.inkscape.org/namespaces/inkscape"
   xmlns:sodipodi="http://sodipodi.sourceforge.net/DTD/sodipodi-0.dtd"
   xmlns:xlink="http://www.w3.org/1999/xlink"
   xmlns="http://www.w3.org/2000/svg"
   xmlns:svg="http://www.w3.org/2000/svg"><sodipodi:namedview
     id="namedview1"
     pagecolor="#505050"
     bordercolor="#ffffff"
     borderopacity="1"
     inkscape:showpageshadow="0"
     inkscape:pageopacity="0"
     inkscape:pagecheckerboard="1"
     inkscape:deskcolor="#505050"
     inkscape:document-units="px"
     inkscape:zoom="0.51339145"
     inkscape:cx="407.09677"
     inkscape:cy="147.06127"
     inkscape:window-width="1920"
     inkscape:window-height="1017"
     inkscape:window-x="1912"
     inkscape:window-y="-8"
     inkscape:window-maximized="1"
     inkscape:current-layer="layer3" /><defs
     id="defs1"><linearGradient
       id="linearGradient1"
       inkscape:collect="always"><stop
         style="stop-color:#b977b2;stop-opacity:1;"
         offset="0"
         id="stop1" /><stop
         style="stop-color:#f16888;stop-opacity:1;"
         offset="1"
         id="stop2" /></linearGradient><filter
       style="color-interpolation-filters:sRGB"
       inkscape:label="Drop Shadow"
       id="filter2"
       x="0"
       y="0"
       width="1.01"
       height="1.01"
       inkscape:auto-region="false"><feFlood
         result="flood"
         in="SourceGraphic"
         flood-opacity="0.600000"
         flood-color="rgb(0,0,0)"
         id="feFlood1" /><feGaussianBlur
         result="blur"
         in="SourceGraphic"
         stdDeviation="0.001 0"
         id="feGaussianBlur1" /><feOffset
         result="offset"
         in="blur"
         dx="8"
         dy="8"
         id="feOffset1" /><feComposite
         result="comp1"
         operator="in"
         in="flood"
         in2="offset"
         id="feComposite1" /><feComposite
         result="comp2"
         operator="over"
         in="SourceGraphic"
         in2="comp1"
         id="feComposite2" /></filter><linearGradient
       inkscape:collect="always"
       xlink:href="#linearGradient1"
       id="linearGradient2"
       x1="-103.30806"
       y1="-424.22546"
       x2="1317.9082"
       y2="2141.0547"
       gradientUnits="userSpaceOnUse" /></defs><rect
     style="display:inline;fill:url(#linearGradient2);stroke-width:0.812598;filter:url(#filter2)"
     id="rect2"
     width="1000"
     height="1406.3342"
     x="0"
     y="0"
     inkscape:label="Gradient"
     transform="scale(0.99009902,0.19712791)" /><g
     inkscape:groupmode="layer"
     id="layer3"
     inkscape:label="Drop Shadow"
     style="filter:url(#filter2)"><path
       id="rect1"
       style="display:inline;fill:#252525;fill-opacity:1;stroke-width:5.34846;-inkscape-stroke:none"
       d="M 0,0 V 280 H 1000 V 0 Z m 485.98438,25.322266 15.0957,9.738281 1.94726,11.6875 -11.19922,10.226562 -15.58398,0.486329 -9.25195,-9.738282 7.79101,-12.173828 z M 137.73242,32.710938 168.37891,45.107422 141.51953,54.404297 111.5625,88.148438 92.28125,119.82812 88.148438,101.23242 100.54492,66.111328 110.875,59.914062 Z m 129.85156,50.072265 39.19922,8.521485 4.86914,45.773432 c 0,0 -11.1999,46.99282 -12.17382,46.50586 -0.97392,-0.48695 -69.39063,5.59961 -69.39063,5.59961 l -13.39258,-17.28711 -0.24219,-74.748042 14.85157,-12.173829 z m 586.05274,0.486328 6.33008,8.279297 -10.22461,14.607422 -3.41016,60.38281 h 14.12305 l 0.48633,25.8086 -52.10352,2.43554 6.33008,-22.40039 3.89453,-52.10351 -11.68555,-10.22657 -0.97461,-22.400386 z m -177.3711,2.46875 22.03711,17.560549 -3.44335,47.17383 -24.10157,9.98632 -35.46679,0.6875 v 27.89063 l -25.13672,1.0332 c 0,0 -4.13224,-22.72618 -4.47657,-24.10351 -0.34433,-1.37732 3.09961,-78.162112 3.09961,-78.162112 l -3.09961,-1.033204 31.33594,2.753907 z m -142.89648,0.689453 29.61328,1.033204 0.6875,13.427732 3.78711,-3.787108 12.39649,41.664058 12.05273,36.1543 9.64063,13.77344 -26.85743,1.37695 6.88672,-2.7539 h -9.29687 l -6.54297,-15.83985 -25.13672,-2.7539 -11.70703,3.09765 -3.44336,12.39649 4.82031,7.57617 -8.26367,-3.78906 -26.85742,1.0332 z m 253.08398,0.6875 -1.72265,23.759766 -29.61133,-5.50977 -23.41602,2.06641 8.60938,22.03711 30.64453,-2.75391 22.38281,5.85352 3.44336,45.45117 -19.2832,14.46094 -50.96094,-5.85352 -22.38086,1.37696 5.85352,-19.625 25.82422,3.4414 32.02344,-3.4414 6.19726,-15.4961 -17.2168,-3.09961 -28.58007,5.50977 1.3789,-6.54102 -17.90625,-16.18359 -1.37695,-27.20313 4.13086,-11.363277 33.05664,-6.541015 z m -642.86718,0.345704 61.29101,0.34375 -1.37695,18.937502 -50.27344,-0.6875 1.37891,13.42773 -4.82227,26.16992 5.50977,25.82422 47.17383,-4.13086 4.82031,17.9043 -28.23438,4.13281 -39.59765,-0.21484 -15.15235,-11.83789 1.72266,-26.85742 -2.41016,1.0332 2.75391,-48.20703 z m 181.80664,0 27.54687,1.376953 2.41016,19.970699 -3.44336,60.60157 19.62695,-4.13086 35.4668,2.7539 -2.75586,22.72657 -24.10156,-1.72266 -38.56641,6.19922 -13.08398,-9.29688 -4.13281,-31.67968 z m 90.95703,0.191406 h 24.83398 l 10.95703,23.130856 -10.71289,57.94727 17.04297,-3.89453 32.73385,3.69415 -8.6919,20.06503 -11.38179,5.70176 -22.39844,-6.0879 c 0,0 -32.62761,0.72987 -32.87109,1.94727 -0.24348,1.21739 4.14062,-41.14648 4.14062,-41.14648 l -5.84375,-41.14844 z m -133.82617,17.541016 -18.07617,0.34375 -20.66016,3.96094 -4.82031,10.33007 2.58203,40.11329 L 250.5,167 l 31.33594,-1.37695 9.98437,-11.70703 -0.51562,-23.93164 z m 387.20117,2.58203 -33.74414,4.47656 -2.41016,20.66016 36.1543,1.0332 7.23047,-14.11719 z m -126.03711,10.06836 -10.71289,27.02539 26.53906,0.48828 z m 394.19336,68.66016 -37.49609,57.94921 -28.73047,-23.375 0.48632,-10.2246 25.32227,0.48632 z m -737.25391,18.50586 19.47852,13.14648 -32.14063,18.99219 -16.55664,-14.60938 z m 259.05469,4 7.23242,24.79101 -27.20312,4.47656 8.26367,-17.21679 5.85351,4.47656 z"
       inkscape:label="Rect with logo"
       sodipodi:nodetypes="cccccccccccccccccccccccccsccccccccccccccccccccccccsccccccccccccccccccccccccccccccccccccccccccccccccccccccccccccccccccccccccccccccccccscccccccccccccccccccccccccccccccccccccccc"
       mask="none" /></g><g
     inkscape:groupmode="layer"
     id="g39"
     inkscape:label="Logo"
     style="display:none"><text
       xml:space="preserve"
       style="font-size:146.161px;font-family:'Russo One';-inkscape-font-specification:'Russo One';text-align:center;writing-mode:lr-tb;direction:ltr;text-anchor:middle;display:none;fill:#373737;fill-opacity:1;stroke-width:8.1431;-inkscape-stroke:none"
       x="490.97412"
       y="189.16866"
       id="text26"><tspan
         sodipodi:role="line"
         id="tspan26"
         x="0"
         y="0"
         style="fill:#373737;fill-opacity:1;stroke-width:8.1431">COLLAPSI</tspan></text><path
       style="fill:#b977b2;fill-opacity:1;stroke-width:5.34846;-inkscape-stroke:none"
       d="m 204.87706,87.804453 -61.29095,-0.344331 -17.21656,15.839238 -2.75465,48.20636 2.41032,-1.03299 -1.72166,26.85783 15.15057,11.8381 39.59809,0.21349 28.23516,-4.13197 -4.82064,-17.90522 -47.17337,4.13197 -5.5093,-25.82484 4.82063,-26.16917 -1.37732,-13.42891 50.27235,0.68866 z"
       id="path27" /><path
       id="path28"
       style="fill:#b977b2;fill-opacity:1;stroke-width:5.34846;-inkscape-stroke:none"
       d="m 267.58398,82.783203 -36.27929,2.191406 -14.85157,12.173829 0.24219,74.748042 13.39258,17.28711 c 0,0 68.41671,-6.08656 69.39063,-5.59961 0.97392,0.48696 12.17382,-46.50586 12.17382,-46.50586 L 306.7832,91.304688 Z m 14.93946,22.410157 8.78125,24.79102 0.51562,23.93164 -9.98437,11.70703 L 250.5,167 l -8.95117,-7.05859 -2.58203,-40.11329 4.82031,-10.33007 20.66016,-3.96094 z" /><path
       style="fill:#b977b2;fill-opacity:1;stroke-width:5.34846;-inkscape-stroke:none"
       d="m 352.93947,88.837447 -27.5465,-1.377325 -1.03299,66.800248 4.13197,31.67847 13.08459,9.29694 38.56509,-6.19796 24.10319,1.72166 2.75465,-22.72586 -35.46612,-2.75465 -19.62687,4.13198 3.44331,-60.60229 z"
       id="path29" /><path
       style="fill:#b977b2;fill-opacity:1;stroke-width:5.34846;-inkscape-stroke:none"
       d="m 416.34895,87.652411 -2.19131,20.208749 5.8435,41.14794 c 0,0 -4.38263,42.36533 -4.13915,41.14794 0.24348,-1.2174 32.86966,-1.94784 32.86966,-1.94784 l 22.40006,6.08698 22.40006,-5.35654 1.46087,-19.72179 -36.52184,-4.38262 -17.04352,3.89566 10.71307,-57.94798 -10.95655,-23.130499 z"
       id="path30" /><path
       id="path31"
       style="fill:#b977b2;fill-opacity:1;stroke-width:5.34846;-inkscape-stroke:none"
       d="m 533.36914,86.427734 -38.2207,102.609376 26.85742,-1.0332 8.26367,3.78906 -4.82031,-7.57617 3.44336,-12.39649 11.70703,-3.09765 25.13672,2.7539 6.54297,15.83985 h 9.29687 l -6.88672,2.7539 26.85743,-1.37695 -9.64063,-13.77344 -12.05273,-36.1543 -12.39649,-41.664058 -3.78711,3.787108 -0.6875,-13.427732 z m 10.31836,31.416016 15.82617,27.51367 -26.53906,-0.48828 z" /><path
       id="path32"
       style="fill:#b977b2;fill-opacity:1;stroke-width:5.34846;-inkscape-stroke:none"
       d="m 676.26562,85.738281 -39.25195,3.78711 -31.33594,-2.753907 3.09961,1.033204 c 0,0 -3.44394,76.784792 -3.09961,78.162112 0.34433,1.37733 4.47657,24.10351 4.47657,24.10351 l 25.13672,-1.0332 v -27.89063 l 35.46679,-0.6875 24.10157,-9.98632 3.44335,-47.17383 z m -6.54101,22.037109 7.23047,12.05273 -7.23047,14.11719 -36.1543,-1.0332 2.41016,-20.66016 z" /><path
       style="fill:#b977b2;fill-opacity:1;stroke-width:5.34846;-inkscape-stroke:none"
       d="m 786.45244,87.115791 -38.90943,0.344331 -33.05579,6.542293 -4.13198,11.362925 1.37733,27.20217 17.90522,16.18356 -1.37732,6.5423 28.57948,-5.5093 17.21656,3.09898 -6.19796,15.4949 -32.0228,3.44331 -25.82484,-3.44331 -5.85363,19.62688 22.38153,-1.37733 50.96102,5.85363 19.28254,-14.46191 -3.44331,-45.45171 -22.38153,-5.85363 -30.64547,2.75465 -8.60828,-22.0372 23.41452,-2.06599 29.61248,5.5093 z"
       id="path33" /><path
       style="fill:#b977b2;fill-opacity:1;stroke-width:5.34846;-inkscape-stroke:none"
       d="m 806.40218,87.652411 0.97392,22.400059 11.68698,10.22612 -3.89566,52.10448 -6.33045,22.40007 52.10449,-2.43479 -0.48696,-25.80877 h -14.12178 l 3.40871,-60.38277 10.22611,-14.608736 -6.33045,-8.278284 z"
       id="path34" /><path
       style="fill:#b977b2;fill-opacity:1;stroke-width:5.34846;-inkscape-stroke:none"
       d="m 200.62663,205.00925 -29.21747,17.53048 16.55657,14.60874 32.13921,-18.99136 z"
       id="path35" /><path
       style="fill:#b977b2;fill-opacity:1;stroke-width:5.34846;-inkscape-stroke:none"
       d="m 447.97488,221.06062 -8.26395,17.21656 27.20216,-4.4763 -7.23095,-24.79185 -5.85363,16.5279 z"
       id="path36" /><path
       style="fill:#b977b2;fill-opacity:1;stroke-width:5.34846;-inkscape-stroke:none"
       d="m 871.65453,221.07886 28.73051,23.37397 37.49576,-57.94798 -40.4175,24.83485 -25.32181,-0.48696 z"
       id="path37" /><path
       style="fill:#b977b2;fill-opacity:1;stroke-width:5.34846;-inkscape-stroke:none"
       d="m 485.98392,25.321808 15.0957,9.739156 1.94783,11.686988 -11.20003,10.226115 -15.58265,0.486958 -9.2522,-9.739157 7.79132,-12.173946 z"
       id="path38" /><path
       style="fill:#b977b2;fill-opacity:1;stroke-width:5.34846;-inkscape-stroke:none"
       d="M 100.54471,66.111588 88.148784,101.23337 92.280759,119.82725 111.56331,88.148784 141.52012,54.404328 168.37795,45.107386 137.73248,32.711463 110.87464,59.913627 Z"
       id="path39" /></g></svg>
