<?xml version="1.0" encoding="UTF-8" standalone="no"?>
<!-- Created with Inkscape (http://www.inkscape.org/) -->

<svg
   width="1000"
   height="400"
   viewBox="0 0 1000 400.00003"
   version="1.1"
   id="svg1"
   inkscape:version="1.4.2 (f4327f4, 2025-05-13)"
   sodipodi:docname="Logo.svg"
   inkscape:export-filename="Logo.png"
   inkscape:export-xdpi="96"
   inkscape:export-ydpi="96"
   xmlns:inkscape="http://www.inkscape.org/namespaces/inkscape"
   xmlns:sodipodi="http://sodipodi.sourceforge.net/DTD/sodipodi-0.dtd"
   xmlns:xlink="http://www.w3.org/1999/xlink"
   xmlns="http://www.w3.org/2000/svg"
   xmlns:svg="http://www.w3.org/2000/svg">
  <sodipodi:namedview
     id="namedview1"
     pagecolor="#505050"
     bordercolor="#ffffff"
     borderopacity="1"
     inkscape:showpageshadow="0"
     inkscape:pageopacity="0"
     inkscape:pagecheckerboard="1"
     inkscape:deskcolor="#505050"
     inkscape:document-units="px"
     inkscape:zoom="1.0267829"
     inkscape:cx="502.05353"
     inkscape:cy="317.00955"
     inkscape:window-width="1920"
     inkscape:window-height="1017"
     inkscape:window-x="1912"
     inkscape:window-y="-8"
     inkscape:window-maximized="1"
     inkscape:current-layer="g91"
     showguides="true" />
  <defs
     id="defs1">
    <inkscape:path-effect
       effect="offset"
       id="path-effect10"
       is_visible="true"
       lpeversion="1.3"
       linejoin_type="miter"
       unit="mm"
       offset="2"
       miter_limit="4"
       attempt_force_join="false"
       update_on_knot_move="true" />
    <linearGradient
       id="linearGradient7"
       inkscape:collect="always">
      <stop
         style="stop-color:#b977b2;stop-opacity:1;"
         offset="0"
         id="stop8" />
      <stop
         style="stop-color:#ec6a8d;stop-opacity:1;"
         offset="1"
         id="stop9" />
    </linearGradient>
    <inkscape:path-effect
       effect="offset"
       id="path-effect2"
       is_visible="true"
       lpeversion="1.3"
       linejoin_type="miter"
       unit="mm"
       offset="1"
       miter_limit="4"
       attempt_force_join="false"
       update_on_knot_move="true" />
    <linearGradient
       inkscape:collect="always"
       xlink:href="#linearGradient7"
       id="linearGradient9"
       x1="118.20703"
       y1="195.95703"
       x2="883.30273"
       y2="195.95703"
       gradientUnits="userSpaceOnUse" />
    <filter
       style="color-interpolation-filters:sRGB;"
       inkscape:label="Drop Shadow"
       id="filter16"
       x="0"
       y="0"
       width="1.1800000000000002"
       height="1.1481242"
       inkscape:auto-region="false">
      <feFlood
         result="flood"
         in="SourceGraphic"
         flood-opacity="0.600000"
         flood-color="rgb(0,0,0)"
         id="feFlood15" />
      <feGaussianBlur
         result="blur"
         in="SourceGraphic"
         stdDeviation="0.000000"
         id="feGaussianBlur15" />
      <feOffset
         result="offset"
         in="blur"
         dx="3.000000"
         dy="3.000000"
         id="feOffset15" />
      <feComposite
         result="comp1"
         operator="in"
         in="flood"
         in2="offset"
         id="feComposite15" />
      <feComposite
         result="comp2"
         operator="over"
         in="SourceGraphic"
         in2="comp1"
         id="feComposite16" />
    </filter>
  </defs>
  <rect
     style="display:none;fill:#b977b2;fill-opacity:1;stroke-width:5.34846;-inkscape-stroke:none"
     id="rect1"
     width="1000"
     height="400"
     x="0"
     y="0"
     inkscape:label="BG" />
  <path
     d="m 245.72656,134.07227 c -11.66972,0 -21.68285,2.70628 -28.43359,9.45703 -1.21084,1.21084 -2.2888,2.53177 -3.24219,3.95312 v -11.90039 h -61.88476 c -11.66973,0 -21.68286,2.70629 -28.4336,9.45703 -6.66632,6.66631 -9.30469,16.68373 -9.30469,28.28321 v 48.28906 c 0,11.05246 2.62214,20.54402 9.1543,27.07617 6.53216,6.53217 16.02371,9.1543 27.07617,9.1543 15.10234,0 33.97262,-1.02756 56.50977,-3.04883 l 6.88281,-0.61719 v -9.63867 c 0.93893,1.41042 1.99876,2.72737 3.1875,3.94141 l 0.0547,0.0566 0.0566,0.0547 c 6.77043,6.62938 16.73088,9.25196 28.37695,9.25196 h 37.72656 c 11.6004,0 21.61764,-2.64106 28.28321,-9.30664 6.37545,-6.37545 9.14137,-15.65992 9.42969,-26.5 v 34.29687 h 92.80468 4.55469 74.30469 18.50195 27.17969 l 6.79101,-18.86328 h 27.09961 l 6.79102,18.86328 h 34.72656 10.95703 31.32227 v -30.18164 h 28.6582 c 11.59948,0 21.61689,-2.63837 28.2832,-9.30469 4.29289,-4.29289 6.95045,-9.90534 8.31641,-16.42383 1.19544,2.12717 2.63026,4.0707 4.32813,5.80469 l 0.0547,0.0566 0.0566,0.0547 c 6.77117,6.63011 16.73182,9.25 28.37696,9.25 h 27.14843 v 6.00977 c -9.37341,-7.5e-4 -28.05392,-0.74633 -55.55664,-2.25196 l -7.97265,-0.4375 v 35.31641 l 6.9375,0.57226 c 11.04333,0.91184 21.7403,1.62344 32.09179,2.13086 h 0.0195 l 13.93554,0.60547 0.0312,0.002 c 5.81112,0.2039 11.33528,0.30664 16.56446,0.30664 11.05246,0 20.5428,-2.62289 27.07421,-9.1543 1.14922,-1.14922 2.17749,-2.38997 3.0918,-3.71484 v 11.35937 h 69.44336 V 220.08789 H 873.5 v -48.26172 h 13.58203 v -36.24414 h -69.44336 v 36.24414 h 13.58203 v 48.26172 h -7.51758 v -6.02148 c 0,-11.05347 -2.62484,-20.54477 -9.15625,-27.07618 -6.5314,-6.53139 -16.02175,-9.15429 -27.07421,-9.15429 h -27.16407 c -0.65369,0 -1.11188,-0.0644 -1.37109,-0.12305 -0.0588,-0.2595 -0.12305,-0.71818 -0.12305,-1.37305 v -3.01757 c 0,-0.65487 0.0643,-1.11355 0.12305,-1.37305 0.25921,-0.0586 0.7174,-0.12305 1.37109,-0.12305 h 54.49024 v -36.24414 h -60.52539 c -11.66973,0 -21.68286,2.70629 -28.4336,9.45703 -2.75365,2.75365 -4.82132,6.07859 -6.29882,9.85156 -1.49899,-3.76359 -3.594,-7.07953 -6.38477,-9.83398 l -0.0156,-0.0176 c -0.006,-0.006 -0.012,-0.01 -0.0176,-0.0156 -6.67046,-6.75842 -16.63802,-9.44141 -28.26563,-9.44141 h -70.9375 v 91.80664 l -34.75586,-91.80664 h -40.62304 l -31.99024,84.50586 H 456.25195 V 135.58203 H 413.9707 v 84.50586 h -50.52539 v -84.50586 h -42.27929 v 34.29492 c -0.28715,-10.7965 -3.03293,-20.03198 -9.41407,-26.33008 l -0.0332,-0.0332 c -6.67045,-6.75842 -16.63802,-9.4414 -28.26563,-9.4414 z m 6.03711,36.24414 h 25.65235 c 0.65495,0 1.1119,0.0662 1.37109,0.125 0.0588,0.25919 0.125,0.71614 0.125,1.37109 v 48.28906 c 0,0.65496 -0.0662,1.11191 -0.125,1.3711 -0.25919,0.0588 -0.71614,0.125 -1.37109,0.125 h -25.65235 c -0.65495,0 -1.1119,-0.0662 -1.37109,-0.125 -0.0588,-0.25919 -0.125,-0.71614 -0.125,-1.3711 V 171.8125 c 0,-0.65495 0.0662,-1.1119 0.125,-1.37109 0.25919,-0.0588 0.71614,-0.125 1.37109,-0.125 z m -93.56055,1.50976 h 49.78516 v 47.40039 l -1.96094,0.1211 c -6.54745,0.40291 -12.04943,0.75722 -16.49804,1.06054 h -0.006 -0.006 c -4.27029,0.29793 -7.77342,0.49394 -10.45899,0.58985 h -0.006 -0.004 c -2.71439,0.10053 -5.43029,0.20011 -8.14844,0.30078 -2.67058,0.0989 -5.24202,0.19995 -7.7168,0.29883 h -6.47656 v -48.27539 c 0,-0.65496 0.0662,-1.11191 0.125,-1.3711 0.25919,-0.0588 0.71614,-0.125 1.37109,-0.125 z m 497.9961,0 h 22.62109 c 0.65496,0 1.11191,0.0662 1.3711,0.125 0.0588,0.25919 0.125,0.71614 0.125,1.3711 v 15.08984 c 0,0.65495 -0.0662,1.1119 -0.125,1.37109 -0.25919,0.0588 -0.71614,0.125 -1.3711,0.125 h -22.62109 z m -97.3457,26.46094 1.51367,4.44726 h -3.02735 z"
     id="path9"
     style="font-size:150.904px;font-family:'Russo One';-inkscape-font-specification:'Russo One';text-align:center;text-anchor:middle;fill:#252525;stroke-width:8.40734;fill-opacity:1"
     aria-label="COLLAPSI"
     inkscape:label="Black Outline"
     inkscape:path-effect="#path-effect10"
     inkscape:original-d="m 206.49181,247.26443 q -33.6516,3.01808 -55.83448,3.01808 -14.7886,0 -21.73018,-6.94159 -6.94159,-6.94158 -6.94159,-21.73017 v -48.28929 q 0,-15.84492 7.09249,-22.9374 7.2434,-7.2434 23.08832,-7.2434 h 54.32544 v 21.12656 h -48.28928 q -9.05424,0 -9.05424,9.05424 v 48.28929 q 0,3.47079 1.96175,5.58345 2.11265,1.96175 5.28164,1.96175 3.16898,0 6.94158,0 3.7726,-0.15091 7.84701,-0.30181 4.07441,-0.1509 8.14882,-0.30181 4.22531,-0.1509 10.71418,-0.60361 6.63978,-0.45272 16.44854,-1.05633 z m 79.97925,-75.45201 q 0,-9.05424 -9.05424,-9.05424 h -25.65369 q -9.05424,0 -9.05424,9.05424 v 48.28929 q 0,9.05424 9.05424,9.05424 h 25.65369 q 9.05424,0 9.05424,-9.05424 z m 27.16272,48.28929 q 0,15.84492 -7.2434,23.08831 -7.09248,7.09249 -22.9374,7.09249 h -37.72601 q -15.84492,0 -23.08831,-7.09249 -7.09249,-7.24339 -7.09249,-23.08831 v -48.28929 q 0,-15.84492 7.09249,-22.9374 7.24339,-7.2434 23.08831,-7.2434 h 37.72601 q 15.84492,0 22.9374,7.2434 7.2434,7.09248 7.2434,22.9374 z m 42.25304,7.5452 h 55.07997 v 21.12656 H 328.7241 V 143.14066 h 27.16272 z m 92.80594,0 h 55.07997 v 21.12656 H 421.53004 V 143.14066 h 27.16272 z m 84.50622,21.12656 H 503.7727 l 39.98956,-105.63281 h 30.1808 l 39.98957,105.63281 h -29.42629 l -6.79068,-18.863 h -37.726 z m 13.58136,-38.48052 h 24.14464 L 558.85266,174.8305 Z m 74.69733,-67.15229 h 63.37969 q 15.84492,0 22.93741,7.2434 7.24339,7.09248 7.24339,22.9374 v 15.09041 q 0,15.84492 -7.24339,23.08831 -7.09249,7.09249 -22.93741,7.09249 H 648.6404 v 30.1808 h -27.16273 z m 66.39777,30.1808 q 0,-9.05424 -9.05424,-9.05424 h -30.1808 v 33.19889 h 30.1808 q 9.05424,0 9.05424,-9.05424 z m 37.57494,53.57093 q 41.3477,2.26356 55.98539,2.26356 3.47079,0 5.43254,-1.96175 2.11266,-2.11266 2.11266,-5.58345 v -13.58136 h -34.70792 q -15.84492,0 -23.08831,-7.09249 -7.09249,-7.24339 -7.09249,-23.08832 v -4.52712 q 0,-15.84492 7.09249,-22.9374 7.24339,-7.2434 23.08831,-7.2434 h 52.9673 v 21.12656 h -46.93114 q -9.05424,0 -9.05424,9.05424 v 3.01808 q 0,9.05425 9.05424,9.05425 h 27.16272 q 14.78859,0 21.73018,6.94158 6.94158,6.94158 6.94158,21.73018 v 7.5452 q 0,14.78859 -6.94158,21.73017 -6.94159,6.94159 -21.73018,6.94159 -7.6961,0 -16.29763,-0.30181 l -13.88317,-0.60362 q -15.39221,-0.75452 -31.84075,-2.11265 z m 154.07302,21.88108 h -54.32544 v -21.12656 h 13.58136 v -63.37969 h -13.58136 v -21.12656 h 54.32544 v 21.12656 h -13.58136 v 63.37969 h 13.58136 z" />
  <g
     id="g91"
     inkscape:label="Black Pieces">
    <path
       style="opacity:1;fill:#252525;fill-opacity:1;stroke:none;stroke-width:0.812598;stroke-dasharray:none;stroke-opacity:1"
       d="m 69.649306,175.13773 v 30.19138 l 181.148314,-12.6609 v -31.1653 L 90.101535,159.55507 Z"
       id="path91" />
    <path
       style="opacity:1;fill:#252525;fill-opacity:1;stroke:none;stroke-width:0.812598;stroke-dasharray:none;stroke-opacity:1"
       d="m 442.12125,232.76789 177.33056,0.68866 19.62688,-33.74446 -95.03541,-12.39592 -103.29935,20.65987 z"
       id="path92"
       sodipodi:nodetypes="cccccc" />
    <path
       style="opacity:1;fill:#252525;fill-opacity:1;stroke:none;stroke-width:0.812598;stroke-dasharray:none;stroke-opacity:1"
       d="m 705.19028,190.07082 100.54471,11.0186 52.33834,-9.64128 -6.88662,-31.67847 -108.80866,-2.75465 -42.69707,19.28255 z"
       id="path93" />
    <path
       style="opacity:1;fill:#252525;fill-opacity:1;stroke:none;stroke-width:0.812598;stroke-dasharray:none;stroke-opacity:1"
       d="m 235.6876,233.73976 122.71337,-2.92174 -67.20018,-30.19139 -57.46103,7.79133 z"
       id="path94" />
    <path
       style="opacity:1;fill:#252525;fill-opacity:1;stroke:none;stroke-width:0.812598;stroke-dasharray:none;stroke-opacity:1"
       d="m 284.41756,153.22738 34.08878,23.24235 60.25797,-23.58668 -13.08458,-20.65987 -60.60229,-3.44331 z"
       id="path95"
       sodipodi:nodetypes="cccccc" />
    <path
       style="opacity:1;fill:#252525;fill-opacity:1;stroke:none;stroke-width:0.812598;stroke-dasharray:none;stroke-opacity:1"
       d="m 648.62785,270.2616 103.72202,1.94783 9.73915,-34.08705 -124.66121,8.27829 z"
       id="path96" />
    <path
       style="opacity:1;fill:#252525;fill-opacity:1;stroke:none;stroke-width:0.812598;stroke-dasharray:none;stroke-opacity:1"
       d="m 534.19275,184.55702 -37.22063,-9.94086 15.10583,-16.98445 37.0822,-8.22513 z"
       id="path97"
       sodipodi:nodetypes="ccccc" />
    <path
       style="opacity:1;fill:#252525;fill-opacity:1;stroke:none;stroke-width:0.812598;stroke-dasharray:none;stroke-opacity:1"
       d="m 859.45066,201.43375 21.69286,3.44331 -4.13197,-12.05159 z"
       id="path98" />
    <path
       style="opacity:1;fill:#252525;fill-opacity:1;stroke:none;stroke-width:0.812598;stroke-dasharray:none;stroke-opacity:1"
       d="m 157.28738,249.80937 36.03488,21.91311 5.8435,-23.86094 z"
       id="path99" />
    <path
       style="opacity:1;fill:#252525;fill-opacity:1;stroke:none;stroke-width:0.812598;stroke-dasharray:none;stroke-opacity:1"
       d="m 404.66197,247.86154 52.10449,15.58265 c 0,0 0,-20.45223 -1.94784,-20.93918 -1.94783,-0.48696 -50.15665,5.35653 -50.15665,5.35653 z"
       id="path100" />
  </g>
  <g
     id="g10"
     style="filter:url(#filter16)"
     inkscape:label="Colored Pieces">
    <path
       style="fill:#5964ff;fill-opacity:1;stroke-width:5.34846;-inkscape-stroke:none"
       d="m 138.42114,244.47515 -8.26395,19.28254 44.76306,8.26395 11.01859,-34.43312 z"
       id="path16" />
    <path
       style="fill:#8b59ff;fill-opacity:1;stroke-width:5.34846;-inkscape-stroke:none"
       d="m 356.00978,131.51772 -23.41452,6.88662 16.5279,15.15058 35.12178,-12.39593 z"
       id="path17" />
    <path
       style="fill:#cd59ff;fill-opacity:1;stroke-width:5.34846;-inkscape-stroke:none"
       d="m 512.2956,168.50624 12.39592,12.39592 24.79185,-26.16917 -21.34854,-11.0186 z"
       id="path18" />
    <path
       style="fill:#ff4cb7;fill-opacity:1;stroke-width:5.34846;-inkscape-stroke:none"
       d="m 690.39313,254.98868 29.10945,22.56208 30.4125,-30.17618 -44.05238,-9.2522 z"
       id="path19"
       sodipodi:nodetypes="ccccc" />
    <path
       style="fill:#59ffac;fill-opacity:1;stroke-width:5.34846;-inkscape-stroke:none"
       d="m 851.39855,187.20815 24.10318,12.39592 16.87223,-13.08458 -38.56509,-11.36293 z"
       id="path20" />
    <path
       style="fill:#ffc182;fill-opacity:1;stroke-width:5.34846;-inkscape-stroke:none"
       d="m 148.27866,181.63528 17.04353,9.49567 26.78268,-21.66962 -17.287,-15.09569 -28.73052,10.22611 z"
       id="path21" />
    <path
       style="fill:#ff5959;fill-opacity:1;stroke-width:5.34846;-inkscape-stroke:none"
       d="m 450.92296,245.91371 -6.33045,21.42615 h 22.88702 l 4.86958,-9.2522 5.84349,-14.12178 z"
       id="path22" />
  </g>
  <path
     d="m 245.72656,137.85156 c -11.11763,0 -19.96803,2.55982 -25.75976,8.35156 -5.70121,5.70121 -8.19922,14.5258 -8.19922,25.60938 v 48.28906 c 0,11.08358 2.49994,19.94181 8.16992,25.73242 l 0.0293,0.0274 0.0273,0.0293 c 5.79025,5.66962 14.64838,8.17188 25.73242,8.17188 h 37.72656 c 11.08405,0 19.90855,-2.50033 25.60938,-8.20117 5.79211,-5.7921 8.34961,-14.6426 8.34961,-25.75977 V 171.8125 c 0,-11.09907 -2.54663,-19.90678 -8.34961,-25.60938 -5.70224,-5.80262 -14.50984,-8.35156 -25.60938,-8.35156 z m -93.56054,1.50977 c -11.11763,0 -19.96803,2.55982 -25.75977,8.35156 -5.70121,5.7012 -8.19922,14.5258 -8.19922,25.60938 v 48.28906 c 0,10.45547 2.46935,18.82287 8.04883,24.40234 5.57948,5.57949 13.94687,8.04883 24.40234,8.04883 14.94563,0 33.68603,-1.01849 56.17188,-3.03516 l 3.4414,-0.30859 v -27.8457 l -4.01171,0.24804 c -6.54332,0.40267 -12.03696,0.75562 -16.48047,1.0586 -4.2981,0.29986 -7.83558,0.49726 -10.5918,0.5957 -2.71533,0.10057 -5.43123,0.20015 -8.14844,0.30078 -2.69343,0.0998 -5.28632,0.20104 -7.78125,0.30078 h -6.86523 c -1.26518,0 -1.927,-0.25982 -2.60547,-0.85742 -0.54931,-0.63092 -0.85938,-1.38765 -0.85938,-2.9082 v -48.28906 c 0,-2.38807 0.53788,-3.50077 1.15625,-4.11915 0.61838,-0.61837 1.73108,-1.15624 4.11914,-1.15625 h 52.06836 v -28.68554 z m 172.77929,0 v 113.1914 h 89.80078 v -28.68554 h -55.08007 v -84.50586 z m 92.80469,0 v 113.1914 h 80.55078 9.25195 28.30274 l 6.79101,-18.86328 h 32.41211 l 6.79102,18.86328 h 35.84961 1.70703 33.01367 v -30.18164 h 32.4375 c 11.08358,0 19.90817,-2.49801 25.60938,-8.19922 5.79173,-5.79173 8.35156,-14.64213 8.35156,-25.75976 v -15.08984 c 0,-11.09954 -2.54895,-19.90714 -8.35156,-25.60938 -5.70225,-5.80262 -14.50984,-8.35156 -25.60938,-8.35156 h -67.1582 V 248.04297 L 576.55469,139.36133 h -35.4043 l -33.59766,88.75195 v -4.24609 h -55.08007 v -84.50586 z m 336.52344,0 c -11.11763,0 -19.96803,2.55982 -25.75977,8.35156 -5.70084,5.70084 -8.20117,14.52533 -8.20117,25.60938 v 4.52539 c 0,11.08405 2.5019,19.94376 8.17187,25.73437 l 0.0293,0.0273 0.0273,0.0293 c 5.79061,5.66998 14.64884,8.16992 25.73242,8.16992 h 30.92773 v 9.80274 c 0,1.54845 -0.32717,2.23342 -1.0039,2.91015 -0.51984,0.51984 -1.16119,0.85547 -2.76172,0.85547 -9.56361,0 -28.23651,-0.7501 -55.77735,-2.25781 l -3.98633,-0.21875 v 27.84375 l 3.46875,0.28711 c 11.00452,0.90863 21.65836,1.61587 31.96485,2.12109 h 0.0117 l 13.9082,0.60547 h 0.0156 c 5.77274,0.20256 11.25168,0.30469 16.43164,0.30469 10.45547,0 18.82128,-2.46972 24.40039,-8.04883 5.5791,-5.5791 8.05078,-13.94637 8.05078,-24.40234 v -7.54492 c 0,-10.45598 -2.47168,-18.82325 -8.05078,-24.40235 -5.57911,-5.57909 -13.94492,-8.04883 -24.40039,-8.04883 h -27.16407 c -2.38806,0 -3.4993,-0.53816 -4.11718,-1.15625 -0.61789,-0.61808 -1.15625,-1.73066 -1.15625,-4.11914 v -3.01757 c 0,-2.38848 0.53836,-3.50106 1.15625,-4.11915 0.61788,-0.61808 1.72912,-1.15624 4.11718,-1.15625 h 50.71094 v -28.68554 z m 67.14453,0 v 28.68554 H 835 v 55.82032 h -13.58203 v 28.68554 h 61.88476 V 223.86719 H 869.7207 v -55.82032 h 13.58203 v -28.68554 z m -569.6543,27.17578 h 25.65235 c 2.38806,0 3.50076,0.53787 4.11914,1.15625 0.61837,0.61837 1.15625,1.73107 1.15625,4.11914 v 48.28906 c 0,2.38807 -0.53788,3.50077 -1.15625,4.11914 -0.61838,0.61838 -1.73108,1.15625 -4.11914,1.15625 h -25.65235 c -2.38806,0 -3.50076,-0.53787 -4.11914,-1.15625 -0.61837,-0.61837 -1.15625,-1.73107 -1.15625,-4.11914 V 171.8125 c 0,-2.38807 0.53788,-3.50077 1.15625,-4.11914 0.61838,-0.61838 1.73108,-1.15625 4.11914,-1.15625 z m 400.65625,1.50976 h 26.40039 c 2.38807,0 3.50077,0.53788 4.11914,1.15625 0.61838,0.61838 1.15625,1.73108 1.15625,4.11915 v 15.08984 c 0,2.38806 -0.53787,3.50077 -1.15625,4.11914 -0.61837,0.61837 -1.73107,1.15625 -4.11914,1.15625 h -26.40039 z m -93.5664,18.51368 6.79296,19.95312 h -13.58593 z"
     id="path2"
     style="font-size:150.904px;font-family:'Russo One';-inkscape-font-specification:'Russo One';text-align:center;text-anchor:middle;fill:url(#linearGradient9);stroke-width:8.40734;fill-opacity:1"
     aria-label="COLLAPSI"
     inkscape:label="Gradient Outline"
     inkscape:path-effect="#path-effect2"
     inkscape:original-d="m 206.49181,247.26443 q -33.6516,3.01808 -55.83448,3.01808 -14.7886,0 -21.73018,-6.94159 -6.94159,-6.94158 -6.94159,-21.73017 v -48.28929 q 0,-15.84492 7.09249,-22.9374 7.2434,-7.2434 23.08832,-7.2434 h 54.32544 v 21.12656 h -48.28928 q -9.05424,0 -9.05424,9.05424 v 48.28929 q 0,3.47079 1.96175,5.58345 2.11265,1.96175 5.28164,1.96175 3.16898,0 6.94158,0 3.7726,-0.15091 7.84701,-0.30181 4.07441,-0.1509 8.14882,-0.30181 4.22531,-0.1509 10.71418,-0.60361 6.63978,-0.45272 16.44854,-1.05633 z m 79.97925,-75.45201 q 0,-9.05424 -9.05424,-9.05424 h -25.65369 q -9.05424,0 -9.05424,9.05424 v 48.28929 q 0,9.05424 9.05424,9.05424 h 25.65369 q 9.05424,0 9.05424,-9.05424 z m 27.16272,48.28929 q 0,15.84492 -7.2434,23.08831 -7.09248,7.09249 -22.9374,7.09249 h -37.72601 q -15.84492,0 -23.08831,-7.09249 -7.09249,-7.24339 -7.09249,-23.08831 v -48.28929 q 0,-15.84492 7.09249,-22.9374 7.24339,-7.2434 23.08831,-7.2434 h 37.72601 q 15.84492,0 22.9374,7.2434 7.2434,7.09248 7.2434,22.9374 z m 42.25304,7.5452 h 55.07997 v 21.12656 H 328.7241 V 143.14066 h 27.16272 z m 92.80594,0 h 55.07997 v 21.12656 H 421.53004 V 143.14066 h 27.16272 z m 84.50622,21.12656 H 503.7727 l 39.98956,-105.63281 h 30.1808 l 39.98957,105.63281 h -29.42629 l -6.79068,-18.863 h -37.726 z m 13.58136,-38.48052 h 24.14464 L 558.85266,174.8305 Z m 74.69733,-67.15229 h 63.37969 q 15.84492,0 22.93741,7.2434 7.24339,7.09248 7.24339,22.9374 v 15.09041 q 0,15.84492 -7.24339,23.08831 -7.09249,7.09249 -22.93741,7.09249 H 648.6404 v 30.1808 h -27.16273 z m 66.39777,30.1808 q 0,-9.05424 -9.05424,-9.05424 h -30.1808 v 33.19889 h 30.1808 q 9.05424,0 9.05424,-9.05424 z m 37.57494,53.57093 q 41.3477,2.26356 55.98539,2.26356 3.47079,0 5.43254,-1.96175 2.11266,-2.11266 2.11266,-5.58345 v -13.58136 h -34.70792 q -15.84492,0 -23.08831,-7.09249 -7.09249,-7.24339 -7.09249,-23.08832 v -4.52712 q 0,-15.84492 7.09249,-22.9374 7.24339,-7.2434 23.08831,-7.2434 h 52.9673 v 21.12656 h -46.93114 q -9.05424,0 -9.05424,9.05424 v 3.01808 q 0,9.05425 9.05424,9.05425 h 27.16272 q 14.78859,0 21.73018,6.94158 6.94158,6.94158 6.94158,21.73018 v 7.5452 q 0,14.78859 -6.94158,21.73017 -6.94159,6.94159 -21.73018,6.94159 -7.6961,0 -16.29763,-0.30181 l -13.88317,-0.60362 q -15.39221,-0.75452 -31.84075,-2.11265 z m 154.07302,21.88108 h -54.32544 v -21.12656 h 13.58136 v -63.37969 h -13.58136 v -21.12656 h 54.32544 v 21.12656 h -13.58136 v 63.37969 h 13.58136 z" />
  <path
     d="m 206.49181,247.26443 q -33.6516,3.01808 -55.83448,3.01808 -14.7886,0 -21.73018,-6.94159 -6.94159,-6.94158 -6.94159,-21.73017 v -48.28929 q 0,-15.84492 7.09249,-22.9374 7.2434,-7.2434 23.08832,-7.2434 h 54.32544 v 21.12656 h -48.28928 q -9.05424,0 -9.05424,9.05424 v 48.28929 q 0,3.47079 1.96175,5.58345 2.11265,1.96175 5.28164,1.96175 3.16898,0 6.94158,0 3.7726,-0.15091 7.84701,-0.30181 4.07441,-0.1509 8.14882,-0.30181 4.22531,-0.1509 10.71418,-0.60361 6.63978,-0.45272 16.44854,-1.05633 z m 79.97925,-75.45201 q 0,-9.05424 -9.05424,-9.05424 h -25.65369 q -9.05424,0 -9.05424,9.05424 v 48.28929 q 0,9.05424 9.05424,9.05424 h 25.65369 q 9.05424,0 9.05424,-9.05424 z m 27.16272,48.28929 q 0,15.84492 -7.2434,23.08831 -7.09248,7.09249 -22.9374,7.09249 h -37.72601 q -15.84492,0 -23.08831,-7.09249 -7.09249,-7.24339 -7.09249,-23.08831 v -48.28929 q 0,-15.84492 7.09249,-22.9374 7.24339,-7.2434 23.08831,-7.2434 h 37.72601 q 15.84492,0 22.9374,7.2434 7.2434,7.09248 7.2434,22.9374 z m 42.25304,7.5452 h 55.07997 v 21.12656 H 328.7241 V 143.14066 h 27.16272 z m 92.80594,0 h 55.07997 v 21.12656 H 421.53004 V 143.14066 h 27.16272 z m 84.50622,21.12656 H 503.7727 l 39.98956,-105.63281 h 30.1808 l 39.98957,105.63281 h -29.42629 l -6.79068,-18.863 h -37.726 z m 13.58136,-38.48052 h 24.14464 L 558.85266,174.8305 Z m 74.69733,-67.15229 h 63.37969 q 15.84492,0 22.93741,7.2434 7.24339,7.09248 7.24339,22.9374 v 15.09041 q 0,15.84492 -7.24339,23.08831 -7.09249,7.09249 -22.93741,7.09249 H 648.6404 v 30.1808 h -27.16273 z m 66.39777,30.1808 q 0,-9.05424 -9.05424,-9.05424 h -30.1808 v 33.19889 h 30.1808 q 9.05424,0 9.05424,-9.05424 z m 37.57494,53.57093 q 41.3477,2.26356 55.98539,2.26356 3.47079,0 5.43254,-1.96175 2.11266,-2.11266 2.11266,-5.58345 v -13.58136 h -34.70792 q -15.84492,0 -23.08831,-7.09249 -7.09249,-7.24339 -7.09249,-23.08832 v -4.52712 q 0,-15.84492 7.09249,-22.9374 7.24339,-7.2434 23.08831,-7.2434 h 52.9673 v 21.12656 h -46.93114 q -9.05424,0 -9.05424,9.05424 v 3.01808 q 0,9.05425 9.05424,9.05425 h 27.16272 q 14.78859,0 21.73018,6.94158 6.94158,6.94158 6.94158,21.73018 v 7.5452 q 0,14.78859 -6.94158,21.73017 -6.94159,6.94159 -21.73018,6.94159 -7.6961,0 -16.29763,-0.30181 l -13.88317,-0.60362 q -15.39221,-0.75452 -31.84075,-2.11265 z m 154.07302,21.88108 h -54.32544 v -21.12656 h 13.58136 v -63.37969 h -13.58136 v -21.12656 h 54.32544 v 21.12656 h -13.58136 v 63.37969 h 13.58136 z"
     id="text1"
     style="font-size:150.904px;font-family:'Russo One';-inkscape-font-specification:'Russo One';text-align:center;text-anchor:middle;display:inline;fill:#ffffff;stroke-width:8.40734"
     aria-label="COLLAPSI"
     inkscape:label="Main Text" />
  <g
     id="g26"
     inkscape:label="Cracks"
     style="opacity:0.31880109">
    <path
       style="fill:none;fill-opacity:1;stroke:#000000;stroke-width:0.812598;stroke-dasharray:none;stroke-opacity:1"
       d="m 177.94791,164.45992 8.33527,-8.99439 15.4949,-3.44331"
       id="path24"
       sodipodi:nodetypes="ccc" />
    <path
       style="fill:none;fill-opacity:1;stroke:#000000;stroke-width:0.812598;stroke-dasharray:none;stroke-opacity:1"
       d="m 186.45534,155.29337 1.89382,-6.71446"
       id="path25" />
    <path
       style="fill:none;fill-opacity:1;stroke:#000000;stroke-width:0.812598;stroke-dasharray:none;stroke-opacity:1"
       d="m 187.48833,151.67789 -5.16496,-2.23815"
       id="path26" />
    <path
       style="fill:none;fill-opacity:1;stroke:#000000;stroke-width:0.812598;stroke-dasharray:none;stroke-opacity:1"
       d="m 149.18149,198.42085 -11.70726,6.97271 -1.54949,8.69436"
       id="path27" />
    <path
       style="fill:none;fill-opacity:1;stroke:#000000;stroke-width:0.812598;stroke-dasharray:none;stroke-opacity:1"
       d="m 140.57321,203.41365 -2.84073,-1.11907 -4.13198,1.03299"
       id="path28" />
    <path
       style="fill:none;fill-opacity:1;stroke:#000000;stroke-width:0.812598;stroke-dasharray:none;stroke-opacity:1"
       d="m 135.66649,202.72499 -0.77475,-1.72166 h -3.27114"
       id="path29" />
    <path
       style="fill:none;fill-opacity:1;stroke:#000000;stroke-width:0.812598;stroke-dasharray:none;stroke-opacity:1"
       d="m 136.52732,211.07502 1.72165,0.68866"
       id="path30" />
    <path
       style="fill:none;fill-opacity:1;stroke:#000000;stroke-width:0.812598;stroke-dasharray:none;stroke-opacity:1"
       d="m 185.33626,228.37766 -2.66856,4.64847 2.66856,3.61548 1.20516,3.78765"
       id="path31" />
    <path
       style="fill:none;fill-opacity:1;stroke:#000000;stroke-width:0.812598;stroke-dasharray:none;stroke-opacity:1"
       d="m 184.21719,235.35037 2.75465,-0.34433"
       id="path32" />
    <path
       style="fill:none;fill-opacity:1;stroke:#000000;stroke-width:0.812598;stroke-dasharray:none;stroke-opacity:1"
       d="m 183.61461,230.87406 4.04589,0.94692"
       id="path33" />
    <path
       style="fill:none;fill-opacity:1;stroke:#000000;stroke-width:0.812598;stroke-dasharray:none;stroke-opacity:1"
       d="m 183.35636,234.31738 -3.52939,1.9799 0.51649,1.97991"
       id="path34" />
    <path
       style="fill:none;fill-opacity:1;stroke:#000000;stroke-width:0.812598;stroke-dasharray:none;stroke-opacity:1"
       d="m 180.77388,235.52254 -1.97991,-0.94692 h -1.29124"
       id="path35" />
    <path
       style="fill:none;fill-opacity:1;stroke:#000000;stroke-width:0.812598;stroke-dasharray:none;stroke-opacity:1"
       d="m 242.66741,198.6791 -10.32994,4.82063 -3.61548,5.42322"
       id="path36" />
    <path
       style="fill:none;fill-opacity:1;stroke:#000000;stroke-width:0.812598;stroke-dasharray:none;stroke-opacity:1"
       d="m 234.40346,202.55282 -6.11188,-2.15207 -3.35723,1.97991"
       id="path37" />
    <path
       style="fill:none;fill-opacity:1;stroke:#000000;stroke-width:0.812598;stroke-dasharray:none;stroke-opacity:1"
       d="m 230.7019,205.73789 0.77474,3.09898 2.49641,2.75465"
       id="path38" />
    <path
       style="fill:none;fill-opacity:1;stroke:#000000;stroke-width:0.812598;stroke-dasharray:none;stroke-opacity:1"
       d="m 232.33747,210.12811 h 3.78765"
       id="path39" />
    <path
       style="fill:none;fill-opacity:1;stroke:#000000;stroke-width:0.812598;stroke-dasharray:none;stroke-opacity:1"
       d="m 237.93285,200.74509 v 1.54949"
       id="path40" />
    <path
       style="fill:none;fill-opacity:1;stroke:#000000;stroke-width:0.812598;stroke-dasharray:none;stroke-opacity:1"
       d="m 286.45295,188.93964 9.19133,-3.89566 6.93915,-7.12176"
       id="path41" />
    <path
       style="fill:none;fill-opacity:1;stroke:#000000;stroke-width:0.812598;stroke-dasharray:none;stroke-opacity:1"
       d="m 298.99212,181.57441 2.8,1.52174"
       id="path42" />
    <path
       style="fill:none;fill-opacity:1;stroke:#000000;stroke-width:0.812598;stroke-dasharray:none;stroke-opacity:1"
       d="m 292.90514,185.95703 5.05219,2.13044 -0.48696,2.92174"
       id="path43" />
    <path
       style="fill:none;fill-opacity:1;stroke:#000000;stroke-width:0.812598;stroke-dasharray:none;stroke-opacity:1"
       d="m 297.28776,183.33963 v -2.25218"
       id="path44" />
    <path
       style="fill:none;fill-opacity:1;stroke:#000000;stroke-width:0.812598;stroke-dasharray:none;stroke-opacity:1"
       d="m 355.84444,154.30477 -8.33915,1.88696 -3.83479,6.81741"
       id="path45" />
    <path
       style="fill:none;fill-opacity:1;stroke:#000000;stroke-width:0.812598;stroke-dasharray:none;stroke-opacity:1"
       d="m 345.6792,159.60043 2.13044,3.04349"
       id="path46" />
    <path
       style="fill:none;fill-opacity:1;stroke:#000000;stroke-width:0.812598;stroke-dasharray:none;stroke-opacity:1"
       d="m 346.95746,157.10477 -3.59131,-0.18261 -2.0087,-3.04348 2.55653,-2.31305"
       id="path47" />
    <path
       style="fill:none;fill-opacity:1;stroke:#000000;stroke-width:0.812598;stroke-dasharray:none;stroke-opacity:1"
       d="m 370.27057,227.65279 -2.92175,3.71305 -0.85217,5.29567"
       id="path48" />
    <path
       style="fill:none;fill-opacity:1;stroke:#000000;stroke-width:0.812598;stroke-dasharray:none;stroke-opacity:1"
       d="m 367.10534,232.03541 1.70436,1.2174"
       id="path49" />
    <path
       style="fill:none;fill-opacity:1;stroke:#000000;stroke-width:0.812598;stroke-dasharray:none;stroke-opacity:1"
       d="m 448.57746,199.79817 -8.60828,8.0057 -1.46341,7.66137"
       id="path50" />
    <path
       style="fill:none;fill-opacity:1;stroke:#000000;stroke-width:0.812598;stroke-dasharray:none;stroke-opacity:1"
       d="m 439.53877,209.86986 -4.30414,2.41032"
       id="path51" />
    <path
       style="fill:none;fill-opacity:1;stroke:#000000;stroke-width:0.812598;stroke-dasharray:none;stroke-opacity:1"
       d="m 441.94909,205.91005 -7.91962,-0.86082 2.41032,-7.74746"
       id="path52" />
    <path
       style="fill:none;fill-opacity:1;stroke:#000000;stroke-width:0.812598;stroke-dasharray:none;stroke-opacity:1"
       d="m 435.32071,200.91725 -5.16497,-3.27115"
       id="path53" />
    <path
       style="fill:none;fill-opacity:1;stroke:#000000;stroke-width:0.812598;stroke-dasharray:none;stroke-opacity:1"
       d="m 421.54746,201.1755 5.85363,3.78764 2.66857,-1.9799"
       id="path54" />
    <path
       style="fill:none;fill-opacity:1;stroke:#000000;stroke-width:0.812598;stroke-dasharray:none;stroke-opacity:1"
       d="m 427.22893,204.79098 -1.63558,4.64847"
       id="path55" />
    <path
       style="fill:none;fill-opacity:1;stroke:#000000;stroke-width:0.812598;stroke-dasharray:none;stroke-opacity:1"
       d="m 558.78412,175.00047 2.55653,-4.93044 4.86958,-0.18261 2.37392,-2.67827 3.46958,-0.36522"
       id="path56" />
    <path
       style="fill:none;fill-opacity:1;stroke:#000000;stroke-width:0.812598;stroke-dasharray:none;stroke-opacity:1"
       d="m 558.96673,174.02656 -2.8,-2.0087 -2.55653,1.33913 -6.87828,-2.73914 0.91304,-3.22609"
       id="path57" />
    <path
       style="fill:none;fill-opacity:1;stroke:#000000;stroke-width:0.812598;stroke-dasharray:none;stroke-opacity:1"
       d="m 558.60152,175.18308 -4.4435,2.19131 -8.46089,0.54783 1.09566,5.17393"
       id="path58" />
    <path
       style="fill:none;fill-opacity:1;stroke:#000000;stroke-width:0.812598;stroke-dasharray:none;stroke-opacity:1"
       d="m 560.36674,172.32221 3.77392,1.09565 3.95653,-1.33913"
       id="path59" />
    <path
       style="fill:none;fill-opacity:1;stroke:#000000;stroke-width:0.812598;stroke-dasharray:none;stroke-opacity:1"
       d="m 564.14066,169.76568 1.33913,-2.37392"
       id="path60" />
    <path
       style="fill:none;fill-opacity:1;stroke:#000000;stroke-width:0.812598;stroke-dasharray:none;stroke-opacity:1"
       d="m 551.23628,172.32221 -0.18261,-2.49566"
       id="path61" />
    <path
       style="fill:none;fill-opacity:1;stroke:#000000;stroke-width:0.812598;stroke-dasharray:none;stroke-opacity:1"
       d="m 546.06235,179.5657 -3.16523,1.64349"
       id="path62" />
    <path
       style="fill:none;fill-opacity:1;stroke:#000000;stroke-width:0.812598;stroke-dasharray:none;stroke-opacity:1"
       d="m 561.86242,183.57157 3.22811,-1.50645 4.39022,0.64562"
       id="path63" />
    <path
       style="fill:none;fill-opacity:1;stroke:#000000;stroke-width:0.812598;stroke-dasharray:none;stroke-opacity:1"
       d="m 537.32883,236.64161 -4.90672,-2.15207 -4.99281,1.89382 -6.80054,-0.34433"
       id="path64" />
    <path
       style="fill:none;fill-opacity:1;stroke:#000000;stroke-width:0.812598;stroke-dasharray:none;stroke-opacity:1"
       d="m 529.58137,235.43645 -1.9799,-2.06598"
       id="path65" />
    <path
       style="fill:none;fill-opacity:1;stroke:#000000;stroke-width:0.812598;stroke-dasharray:none;stroke-opacity:1"
       d="m 539.82523,231.04623 -4.39023,-4.56239 4.99281,-1.46341"
       id="path66" />
    <path
       style="fill:none;fill-opacity:1;stroke:#000000;stroke-width:0.812598;stroke-dasharray:none;stroke-opacity:1"
       d="m 650.9409,218.40059 2.43478,-5.35653 6.69568,0.12174 5.84349,-3.89567"
       id="path67" />
    <path
       style="fill:none;fill-opacity:1;stroke:#000000;stroke-width:0.812598;stroke-dasharray:none;stroke-opacity:1"
       d="m 654.83656,212.80058 2.92175,-3.77393 -4.38263,-2.19131"
       id="path68" />
    <path
       style="fill:none;fill-opacity:1;stroke:#000000;stroke-width:0.812598;stroke-dasharray:none;stroke-opacity:1"
       d="m 651.91481,215.9658 -4.38262,-1.70435 -5.2348,2.80001"
       id="path69" />
    <path
       style="fill:none;fill-opacity:1;stroke:#000000;stroke-width:0.812598;stroke-dasharray:none;stroke-opacity:1"
       d="m 680.52358,164.10479 8.52177,-3.89566 -0.12174,-6.33045 3.89566,-1.33914"
       id="path70" />
    <path
       style="fill:none;fill-opacity:1;stroke:#000000;stroke-width:0.812598;stroke-dasharray:none;stroke-opacity:1"
       d="m 684.17577,162.52218 0.85217,-3.65218 -3.4087,-0.36522"
       id="path71" />
    <path
       style="fill:none;fill-opacity:1;stroke:#000000;stroke-width:0.812598;stroke-dasharray:none;stroke-opacity:1"
       d="m 700.6106,145.96561 -0.36522,3.04349 -2.55653,1.33913"
       id="path72" />
    <path
       style="fill:none;fill-opacity:1;stroke:#000000;stroke-width:0.812598;stroke-dasharray:none;stroke-opacity:1"
       d="m 761.60207,163.98305 4.0174,-3.53044 -1.82609,-5.8435"
       id="path73" />
    <path
       style="fill:none;fill-opacity:1;stroke:#000000;stroke-width:0.812598;stroke-dasharray:none;stroke-opacity:1"
       d="m 764.88903,158.01782 3.77392,-1.94783"
       id="path74" />
    <path
       style="fill:none;fill-opacity:1;stroke:#000000;stroke-width:0.812598;stroke-dasharray:none;stroke-opacity:1"
       d="m 759.41075,185.4092 -4.38262,6.20871 3.53045,7.66959"
       id="path75" />
    <path
       style="fill:none;fill-opacity:1;stroke:#000000;stroke-width:0.812598;stroke-dasharray:none;stroke-opacity:1"
       d="m 756.24553,194.0527 6.81741,0.36522"
       id="path76" />
    <path
       style="fill:none;fill-opacity:1;stroke:#000000;stroke-width:0.812598;stroke-dasharray:none;stroke-opacity:1"
       d="m 756.97597,195.75705 -2.31305,2.31305 -8.64351,3.89567"
       id="path77" />
    <path
       style="fill:none;fill-opacity:1;stroke:#000000;stroke-width:0.812598;stroke-dasharray:none;stroke-opacity:1"
       d="m 782.78473,229.11366 2.31305,4.6261 7.54785,-0.85217 5.60001,1.58261"
       id="path78" />
    <path
       style="fill:none;fill-opacity:1;stroke:#000000;stroke-width:0.812598;stroke-dasharray:none;stroke-opacity:1"
       d="m 787.65431,233.61802 0.48696,5.11306 4.6261,3.04349"
       id="path79" />
    <path
       style="fill:none;fill-opacity:1;stroke:#000000;stroke-width:0.812598;stroke-dasharray:none;stroke-opacity:1"
       d="m 784.2456,232.52237 -2.67826,3.16523"
       id="path80" />
    <path
       style="fill:none;fill-opacity:1;stroke:#000000;stroke-width:0.812598;stroke-dasharray:none;stroke-opacity:1"
       d="m 866.9067,227.65279 -8.76524,4.99132 -11.32177,6.20871 -0.48696,5.72176"
       id="path81" />
    <path
       style="fill:none;fill-opacity:1;stroke:#000000;stroke-width:0.812598;stroke-dasharray:none;stroke-opacity:1"
       d="m 851.20231,236.17455 0.6087,4.86958 3.16522,4.26088"
       id="path82" />
    <path
       style="fill:none;fill-opacity:1;stroke:#000000;stroke-width:0.812598;stroke-dasharray:none;stroke-opacity:1"
       d="m 855.21971,233.8615 -7.06089,-2.92174 -4.13914,1.82609"
       id="path83" />
    <path
       style="fill:none;fill-opacity:1;stroke:#000000;stroke-width:0.812598;stroke-dasharray:none;stroke-opacity:1"
       d="m 834.88922,227.65279 3.53044,3.16523"
       id="path84" />
    <path
       style="fill:none;fill-opacity:1;stroke:#000000;stroke-width:0.812598;stroke-dasharray:none;stroke-opacity:1"
       d="m 850.95883,231.79193 0.85218,-2.43479"
       id="path85" />
    <path
       style="fill:none;fill-opacity:1;stroke:#000000;stroke-width:0.812598;stroke-dasharray:none;stroke-opacity:1"
       d="m 855.34145,233.73976 1.82609,-3.4087"
       id="path86" />
    <path
       style="fill:none;fill-opacity:1;stroke:#000000;stroke-width:0.812598;stroke-dasharray:none;stroke-opacity:1"
       d="m 865.64862,164.24598 -5.68147,-2.41032 -4.30414,4.47631"
       id="path87" />
    <path
       style="fill:none;fill-opacity:1;stroke:#000000;stroke-width:0.812598;stroke-dasharray:none;stroke-opacity:1"
       d="m 867.7146,161.147 -1.89382,3.61548 -4.13197,2.41031"
       id="path88" />
    <path
       style="fill:none;fill-opacity:1;stroke:#000000;stroke-width:0.812598;stroke-dasharray:none;stroke-opacity:1"
       d="m 873.2239,163.55732 1.20516,-3.44332 2.23816,-2.92681"
       id="path89" />
    <path
       style="fill:none;fill-opacity:1;stroke:#000000;stroke-width:0.812598;stroke-dasharray:none;stroke-opacity:1"
       d="m 858.2455,163.04082 -4.82064,-1.20516"
       id="path90" />
  </g>
</svg>
