<?xml version="1.0" encoding="UTF-8" standalone="no"?>
<!-- Created with Inkscape (http://www.inkscape.org/) -->

<svg
   width="256"
   height="256"
   viewBox="0 0 256 256.00001"
   version="1.1"
   id="svg1"
   inkscape:version="1.4.2 (f4327f4, 2025-05-13)"
   sodipodi:docname="Buttons_PlayerTypes.svg"
   xml:space="preserve"
   inkscape:export-filename="Button_PlayerType_Human_Deselected.png"
   inkscape:export-xdpi="96"
   inkscape:export-ydpi="96"
   inkscape:export-batch-path="Exports"
   inkscape:export-batch-name="Button_PlayerTypes"
   xmlns:inkscape="http://www.inkscape.org/namespaces/inkscape"
   xmlns:sodipodi="http://sodipodi.sourceforge.net/DTD/sodipodi-0.dtd"
   xmlns:xlink="http://www.w3.org/1999/xlink"
   xmlns="http://www.w3.org/2000/svg"
   xmlns:svg="http://www.w3.org/2000/svg"><sodipodi:namedview
     id="namedview1"
     pagecolor="#505050"
     bordercolor="#ffffff"
     borderopacity="1"
     inkscape:showpageshadow="0"
     inkscape:pageopacity="0"
     inkscape:pagecheckerboard="1"
     inkscape:deskcolor="#505050"
     inkscape:document-units="px"
     inkscape:zoom="1.026783"
     inkscape:cx="154.85258"
     inkscape:cy="212.80056"
     inkscape:window-width="1920"
     inkscape:window-height="1017"
     inkscape:window-x="1912"
     inkscape:window-y="-8"
     inkscape:window-maximized="1"
     inkscape:current-layer="svg1" /><defs
     id="defs1"><linearGradient
       id="linearGradient9"
       inkscape:collect="always"
       inkscape:label="Selected"><stop
         style="stop-color:#b977b2;stop-opacity:1;"
         offset="0"
         id="stop9" /><stop
         style="stop-color:#f16888;stop-opacity:1;"
         offset="1"
         id="stop10" /></linearGradient><filter
       style="color-interpolation-filters:sRGB;"
       inkscape:label="Drop Shadow"
       id="filter2"
       x="0"
       y="0"
       width="1.0663717"
       height="1.0663717"><feFlood
         result="flood"
         in="SourceGraphic"
         flood-opacity="0.600000"
         flood-color="rgb(0,0,0)"
         id="feFlood1" /><feGaussianBlur
         result="blur"
         in="SourceGraphic"
         stdDeviation="0.000000"
         id="feGaussianBlur1" /><feOffset
         result="offset"
         in="blur"
         dx="15"
         dy="15"
         id="feOffset1" /><feComposite
         result="comp1"
         operator="in"
         in="flood"
         in2="offset"
         id="feComposite1" /><feComposite
         result="comp2"
         operator="over"
         in="SourceGraphic"
         in2="comp1"
         id="feComposite2" /></filter><linearGradient
       inkscape:collect="always"
       xlink:href="#linearGradient9"
       id="linearGradient10"
       x1="41.436977"
       y1="55.365005"
       x2="214.56297"
       y2="200.63496"
       gradientUnits="userSpaceOnUse" /><filter
       style="color-interpolation-filters:sRGB"
       inkscape:label="Drop Shadow"
       id="filter4-4"
       x="0"
       y="0"
       width="1.0383545"
       height="1.039528"><feFlood
         result="flood"
         in="SourceGraphic"
         flood-opacity="0.29999999999999999"
         flood-color="rgb(0,0,0)"
         id="feFlood2-8" /><feGaussianBlur
         result="blur"
         in="SourceGraphic"
         stdDeviation="0.000000"
         id="feGaussianBlur2-8" /><feOffset
         result="offset"
         in="blur"
         dx="20"
         dy="20"
         id="feOffset2-2" /><feComposite
         result="comp1"
         operator="in"
         in="flood"
         in2="offset"
         id="feComposite3-4" /><feComposite
         result="comp2"
         operator="over"
         in="SourceGraphic"
         in2="comp1"
         id="feComposite4-5" /></filter></defs><g
     id="g4"
     inkscape:label="Local_Deselected"
     style="display:inline"><rect
       style="display:inline;fill:none;stroke:none;stroke-width:5.34846;-inkscape-stroke:none"
       id="rect2"
       width="256"
       height="256"
       x="0"
       y="0"
       inkscape:label="Silly Inkscape Shenanigans - Empty object but dont delete" /><g
       inkscape:label="Drop Shadow"
       inkscape:groupmode="layer"
       id="layer1"
       style="filter:url(#filter2)"><rect
         style="fill:#45314c;fill-opacity:1;stroke:none;stroke-width:4.72168;-inkscape-stroke:none"
         id="rect1"
         width="226"
         height="226"
         x="15"
         y="15"
         inkscape:label="BG" /></g><g
       style="fill:#ffffff;filter:url(#filter4-4)"
       id="g2"
       transform="matrix(0.28464655,0,0,0.29335556,8.2418838,251.66124)"
       inkscape:label="Icon"><path
         d="m 420.72569,-421.54046 q -53.77467,0 -87.99492,-34.22025 -34.22025,-34.22024 -34.22025,-87.99492 0,-53.77467 34.22025,-87.99492 34.22025,-34.22025 87.99492,-34.22025 53.77468,0 87.99492,34.22025 34.22025,34.22025 34.22025,87.99492 0,53.77468 -34.22025,87.99492 -34.22024,34.22025 -87.99492,34.22025 z M 160,-160 v -76.58817 q 0,-30.96118 15.48059,-52.95991 15.48059,-21.99873 39.92362,-33.40548 54.58944,-24.44303 104.69766,-36.66455 50.10822,-12.22151 100.62382,-12.22151 50.5156,0 100.21644,12.6289 49.70083,12.6289 104.22509,36.41197 25.50224,11.51267 40.8932,33.38103 15.39096,21.86837 15.39096,52.82955 V -160 Z m 48.88607,-48.88607 h 423.67925 v -27.7021 q 0,-13.03629 -7.7403,-24.85042 -7.74029,-11.81413 -19.14704,-17.51751 -52.14514,-25.2578 -95.32783,-34.62763 -43.18269,-9.36983 -89.62446,-9.36983 -46.44176,0 -90.43922,9.36983 -43.99746,9.36983 -95.32783,34.62763 -11.40675,5.70338 -18.73966,17.51751 -7.33291,11.81413 -7.33291,24.85042 z m 211.83962,-261.54046 q 31.77595,0 52.55252,-20.77658 20.77658,-20.77657 20.77658,-52.55252 0,-31.77594 -20.77658,-52.55252 -20.77657,-20.77658 -52.55252,-20.77658 -31.77594,0 -52.55252,20.77658 -20.77658,20.77658 -20.77658,52.55252 0,31.77595 20.77658,52.55252 20.77658,20.77658 52.55252,20.77658 z m 0,-73.3291 z m 0,334.86956 z"
         id="path1"
         style="stroke-width:0.814768"
         inkscape:label="Human" /></g></g><g
     id="g9"
     inkscape:label="Local_Selected"
     style="display:inline"
     transform="translate(15,15)"><rect
       style="display:inline;fill:none;stroke:none;stroke-width:5.34846;-inkscape-stroke:none"
       id="rect2-8"
       width="256"
       height="256"
       x="-15"
       y="-15"
       inkscape:label="Silly Inkscape Shenanigans - Empty object but dont delete" /><g
       inkscape:label="Drop Shadow"
       inkscape:groupmode="layer"
       id="g7"
       style="display:inline"><rect
         style="display:inline;fill:url(#linearGradient10);stroke:none;stroke-width:4.72168;-inkscape-stroke:none"
         id="rect7"
         width="226"
         height="226"
         x="15"
         y="15"
         inkscape:label="BG" /></g><g
       style="fill:#ffffff;filter:url(#filter4-4)"
       id="g8"
       transform="matrix(0.28464655,0,0,0.29335556,8.2418838,251.66124)"
       inkscape:label="Icon"><path
         d="m 420.72569,-421.54046 q -53.77467,0 -87.99492,-34.22025 -34.22025,-34.22024 -34.22025,-87.99492 0,-53.77467 34.22025,-87.99492 34.22025,-34.22025 87.99492,-34.22025 53.77468,0 87.99492,34.22025 34.22025,34.22025 34.22025,87.99492 0,53.77468 -34.22025,87.99492 -34.22024,34.22025 -87.99492,34.22025 z M 160,-160 v -76.58817 q 0,-30.96118 15.48059,-52.95991 15.48059,-21.99873 39.92362,-33.40548 54.58944,-24.44303 104.69766,-36.66455 50.10822,-12.22151 100.62382,-12.22151 50.5156,0 100.21644,12.6289 49.70083,12.6289 104.22509,36.41197 25.50224,11.51267 40.8932,33.38103 15.39096,21.86837 15.39096,52.82955 V -160 Z m 48.88607,-48.88607 h 423.67925 v -27.7021 q 0,-13.03629 -7.7403,-24.85042 -7.74029,-11.81413 -19.14704,-17.51751 -52.14514,-25.2578 -95.32783,-34.62763 -43.18269,-9.36983 -89.62446,-9.36983 -46.44176,0 -90.43922,9.36983 -43.99746,9.36983 -95.32783,34.62763 -11.40675,5.70338 -18.73966,17.51751 -7.33291,11.81413 -7.33291,24.85042 z m 211.83962,-261.54046 q 31.77595,0 52.55252,-20.77658 20.77658,-20.77657 20.77658,-52.55252 0,-31.77594 -20.77658,-52.55252 -20.77657,-20.77658 -52.55252,-20.77658 -31.77594,0 -52.55252,20.77658 -20.77658,20.77658 -20.77658,52.55252 0,31.77595 20.77658,52.55252 20.77658,20.77658 52.55252,20.77658 z m 0,-73.3291 z m 0,334.86956 z"
         id="path7"
         style="stroke-width:0.814768"
         inkscape:label="Human" /></g></g><g
     id="g12"
     inkscape:label="Bot_Deselected"
     style="display:inline"><rect
       style="display:inline;fill:none;stroke:none;stroke-width:5.34846;-inkscape-stroke:none"
       id="rect3"
       width="256"
       height="256"
       x="-15"
       y="-15"
       inkscape:label="Silly Inkscape Shenanigans - Empty object but dont delete"
       transform="translate(15,15)" /><g
       inkscape:label="Drop Shadow"
       inkscape:groupmode="layer"
       id="g10"
       style="filter:url(#filter2)"><rect
         style="fill:#45314c;fill-opacity:1;stroke:none;stroke-width:4.72168;-inkscape-stroke:none"
         id="rect10"
         width="226"
         height="226"
         x="15"
         y="15"
         inkscape:label="BG" /></g><g
       style="fill:#ffffff;filter:url(#filter4-4)"
       id="g11"
       transform="matrix(0.28464655,0,0,0.29335556,8.2418838,251.66124)"
       inkscape:label="Icon"><path
         d="m 147,-376 q -45,0 -76,-31.21 Q 40,-438.42 40,-483 40,-527.58 71.21,-558.79 102.42,-590 147,-590 v -123 q 0,-24 18,-42 18,-18 42,-18 h 166 q 0,-45 31.21,-76 31.21,-31 75.79,-31 44.58,0 75.79,31.21 Q 587,-817.58 587,-773 h 166 q 24,0 42,18 18,18 18,42 v 123 q 45,0 76,31.21 31,31.21 31,75.79 0,44.58 -31.21,75.79 Q 857.58,-376 813,-376 v 196 q 0,24 -18,42 -18,18 -42,18 H 207 q -24,0 -42,-18 -18,-18 -18,-42 z m 196.24,-100 q 16.76,0 28.26,-11.74 11.5,-11.73 11.5,-28.5 0,-16.76 -11.74,-28.26 -11.73,-11.5 -28.5,-11.5 -16.76,0 -28.26,11.74 -11.5,11.73 -11.5,28.5 0,16.76 11.74,28.26 11.73,11.5 28.5,11.5 z m 274,0 q 16.76,0 28.26,-11.74 11.5,-11.73 11.5,-28.5 0,-16.76 -11.74,-28.26 -11.73,-11.5 -28.5,-11.5 -16.76,0 -28.26,11.74 -11.5,11.73 -11.5,28.5 0,16.76 11.74,28.26 11.73,11.5 28.5,11.5 z M 312,-285 h 336 v -60 H 312 Z M 207,-180 H 753 V -713 H 207 Z m 273,-267 z"
         id="path1-8"
         style="display:inline;fill:#ffffff"
         transform="matrix(0.70095594,0,0,0.68014627,84.26684,-117.51507)"
         inkscape:label="Robot" /></g></g><g
     id="g15"
     inkscape:label="Bot_Selected"
     style="display:inline"
     transform="translate(15,15)"><rect
       style="display:inline;fill:none;stroke:none;stroke-width:5.34846;-inkscape-stroke:none"
       id="rect4"
       width="256"
       height="256"
       x="-15"
       y="-15"
       inkscape:label="Silly Inkscape Shenanigans - Empty object but dont delete" /><g
       inkscape:label="Drop Shadow"
       inkscape:groupmode="layer"
       id="g13"
       style="display:inline"><rect
         style="display:inline;fill:url(#linearGradient10);stroke:none;stroke-width:4.72168;-inkscape-stroke:none"
         id="rect12"
         width="226"
         height="226"
         x="15"
         y="15"
         inkscape:label="BG" /></g><g
       style="fill:#ffffff;filter:url(#filter4-4)"
       id="g14"
       transform="matrix(0.28464655,0,0,0.29335556,8.2418838,251.66124)"
       inkscape:label="Icon"><path
         d="m 61.558278,152.74106 q -8.978611,0 -15.163876,-6.22716 -6.185266,-6.22717 -6.185266,-15.12198 0,-8.89481 6.227166,-15.12198 6.227166,-6.22716 15.121976,-6.22716 V 85.501241 q 0,-4.788593 3.591445,-8.380037 3.591444,-3.591444 8.380037,-3.591444 h 33.1211 q 0,-8.978611 6.22716,-15.163877 6.22717,-6.185265 15.12198,-6.185265 8.89481,0 15.12198,6.227165 6.22716,6.227166 6.22716,15.121977 h 33.1211 q 4.78859,0 8.38004,3.591444 3.59144,3.591444 3.59144,8.380037 v 24.541539 q 8.97861,0 15.16388,6.22716 6.18526,6.22717 6.18526,15.12198 0,8.89481 -6.22716,15.12198 -6.22717,6.22716 -15.12198,6.22716 v 39.10684 q 0,4.78859 -3.59144,8.38004 -3.59145,3.59144 -8.38004,3.59144 H 73.52976 q -4.788593,0 -8.380037,-3.59144 -3.591445,-3.59145 -3.591445,-8.38004 z M 100.713,132.78859 q 3.34404,0 5.63857,-2.34242 2.29454,-2.34042 2.29454,-5.68645 0,-3.34403 -2.34242,-5.63857 -2.34043,-2.29453 -5.68646,-2.29453 -3.344032,0 -5.638566,2.34242 -2.294534,2.34042 -2.294534,5.68645 0,3.34403 2.34242,5.63857 2.340424,2.29453 5.68645,2.29453 z m 54.66977,0 q 3.34403,0 5.63857,-2.34242 2.29453,-2.34042 2.29453,-5.68645 0,-3.34403 -2.34242,-5.63857 -2.34042,-2.29453 -5.68645,-2.29453 -3.34404,0 -5.63857,2.34242 -2.29454,2.34042 -2.29454,5.68645 0,3.34403 2.34242,5.63857 2.34043,2.29453 5.68646,2.29453 z M 94.479852,170.89781 H 161.52015 V 158.92633 H 94.479852 Z M 73.52976,191.8479 H 182.47024 V 85.501241 H 73.52976 Z M 128,138.57481 Z"
         id="path1-8-7"
         style="display:inline;fill:#ffffff;stroke-width:0.199525"
         inkscape:label="Robot"
         transform="matrix(3.5131288,0,0,3.4088326,-28.9548,-857.87104)" /></g></g><g
     id="g17"
     inkscape:label="Remote_Deselected"
     style="display:inline"><rect
       style="display:inline;fill:none;stroke:none;stroke-width:5.34846;-inkscape-stroke:none"
       id="rect5"
       width="256"
       height="256"
       x="-15"
       y="-15"
       inkscape:label="Silly Inkscape Shenanigans - Empty object but dont delete"
       transform="translate(15,15)" /><g
       inkscape:label="Drop Shadow"
       inkscape:groupmode="layer"
       id="g6"
       style="filter:url(#filter2)"><rect
         style="fill:#45314c;fill-opacity:1;stroke:none;stroke-width:4.72168;-inkscape-stroke:none"
         id="rect6"
         width="226"
         height="226"
         x="15"
         y="15"
         inkscape:label="BG" /></g><g
       style="display:inline;fill:#ffffff;filter:url(#filter4-4)"
       id="g16"
       transform="matrix(0.28464655,0,0,0.29335556,8.2418838,251.66124)"
       inkscape:label="Icon"><path
         d="m 194.27355,-263.36652 q -45.77224,-44.41337 -70.26441,-100.90407 -24.492161,-56.4907 -24.492161,-118.82526 0,-62.33456 24.492161,-118.82526 24.49217,-56.49069 70.26441,-100.90407 l 28.10576,27.27137 q -39.34807,38.9591 -61.02965,88.43716 -21.68159,49.47806 -21.68159,104.0208 0,54.54274 21.68159,104.0208 21.68158,49.47806 61.02965,88.43716 z m 73.878,-71.68474 q -30.51483,-29.60892 -46.57526,-67.78884 -16.06044,-38.17992 -16.06044,-80.25575 0,-42.07583 16.06044,-80.25575 16.06043,-38.17992 46.57526,-67.78883 l 28.10576,27.27137 q -24.09065,24.15464 -37.34051,55.32192 -13.24986,31.16728 -13.24986,65.45129 0,34.28401 13.24986,65.0617 13.24986,30.77769 37.34051,55.71152 z m 128.48349,194.79551 v -275.83044 q -22.48461,-7.01264 -35.73447,-25.71301 -13.24986,-18.70037 -13.24986,-41.29665 0,-29.60892 21.28008,-50.25724 21.28007,-20.64832 51.7949,-20.64832 30.51483,0 51.7949,20.64832 21.28008,20.64832 21.28008,50.25724 0,22.59628 -13.24986,41.29665 -13.24986,18.70037 -35.73447,25.71301 v 275.83044 z m 176.66479,-194.79551 -28.10576,-27.27137 q 24.09065,-24.93383 37.34051,-55.71152 13.24986,-30.77769 13.24986,-65.0617 0,-34.28401 -13.24986,-65.0617 -13.24986,-30.77769 -37.34051,-55.71151 l 28.10576,-27.27137 q 30.51483,29.60891 46.57526,67.78883 16.06044,38.17992 16.06044,80.25575 0,42.07583 -16.06044,80.25575 -16.06043,38.17992 -46.57526,67.78884 z m 73.878,71.68474 -28.10576,-27.27137 q 39.34807,-38.9591 61.02966,-88.43716 21.68158,-49.47806 21.68158,-104.0208 0,-54.54274 -21.68158,-104.0208 -21.68159,-49.47806 -61.02966,-88.43716 l 28.10576,-27.27137 q 45.77224,44.41338 70.26441,100.90407 24.49216,56.4907 24.49216,118.82526 0,62.33456 -24.49216,118.82526 -24.49217,56.4907 -70.26441,100.90407 z"
         id="path1-5"
         style="display:inline;fill:#ffffff;stroke-width:0.791012"
         inkscape:label="Network" /></g></g><g
     id="g20"
     inkscape:label="Remote_Selected"
     style="display:inline"
     transform="translate(15,15)"><rect
       style="display:inline;fill:none;stroke:none;stroke-width:5.34846;-inkscape-stroke:none"
       id="rect17"
       width="256"
       height="256"
       x="-15"
       y="-15"
       inkscape:label="Silly Inkscape Shenanigans - Empty object but dont delete" /><g
       inkscape:label="Drop Shadow"
       inkscape:groupmode="layer"
       id="g18"
       style="display:inline"><rect
         style="display:inline;fill:url(#linearGradient10);stroke:none;stroke-width:4.72168;-inkscape-stroke:none"
         id="rect18"
         width="226"
         height="226"
         x="15"
         y="15"
         inkscape:label="BG" /></g><path
       d="m 194.27355,-263.36652 q -45.77224,-44.41337 -70.26441,-100.90407 -24.492161,-56.4907 -24.492161,-118.82526 0,-62.33456 24.492161,-118.82526 24.49217,-56.49069 70.26441,-100.90407 l 28.10576,27.27137 q -39.34807,38.9591 -61.02965,88.43716 -21.68159,49.47806 -21.68159,104.0208 0,54.54274 21.68159,104.0208 21.68158,49.47806 61.02965,88.43716 z m 73.878,-71.68474 q -30.51483,-29.60892 -46.57526,-67.78884 -16.06044,-38.17992 -16.06044,-80.25575 0,-42.07583 16.06044,-80.25575 16.06043,-38.17992 46.57526,-67.78883 l 28.10576,27.27137 q -24.09065,24.15464 -37.34051,55.32192 -13.24986,31.16728 -13.24986,65.45129 0,34.28401 13.24986,65.0617 13.24986,30.77769 37.34051,55.71152 z m 128.48349,194.79551 v -275.83044 q -22.48461,-7.01264 -35.73447,-25.71301 -13.24986,-18.70037 -13.24986,-41.29665 0,-29.60892 21.28008,-50.25724 21.28007,-20.64832 51.7949,-20.64832 30.51483,0 51.7949,20.64832 21.28008,20.64832 21.28008,50.25724 0,22.59628 -13.24986,41.29665 -13.24986,18.70037 -35.73447,25.71301 v 275.83044 z m 176.66479,-194.79551 -28.10576,-27.27137 q 24.09065,-24.93383 37.34051,-55.71152 13.24986,-30.77769 13.24986,-65.0617 0,-34.28401 -13.24986,-65.0617 -13.24986,-30.77769 -37.34051,-55.71151 l 28.10576,-27.27137 q 30.51483,29.60891 46.57526,67.78883 16.06044,38.17992 16.06044,80.25575 0,42.07583 -16.06044,80.25575 -16.06043,38.17992 -46.57526,67.78884 z m 73.878,71.68474 -28.10576,-27.27137 q 39.34807,-38.9591 61.02966,-88.43716 21.68158,-49.47806 21.68158,-104.0208 0,-54.54274 -21.68158,-104.0208 -21.68159,-49.47806 -61.02966,-88.43716 l 28.10576,-27.27137 q 45.77224,44.41338 70.26441,100.90407 24.49216,56.4907 24.49216,118.82526 0,62.33456 -24.49216,118.82526 -24.49217,56.4907 -70.26441,100.90407 z"
       id="path1-5-5"
       style="display:inline;fill:#ffffff;stroke-width:0.791012;filter:url(#filter4-4)"
       inkscape:label="Network"
       transform="matrix(0.28464655,0,0,0.29335556,7.1851043,256.3189)" /></g></svg>
